ISO-10303-21;
HEADER;
FILE_DESCRIPTION(('FreeCAD Model'),'2;1');
FILE_NAME('Open CASCADE Shape Model','2026-08-10T00:08:40',(''),(''),
  'Open CASCADE STEP processor 7.9','FreeCAD','Unknown');
FILE_SCHEMA(('AUTOMOTIVE_DESIGN { 1 0 10303 214 1 1 1 1 }'));
ENDSEC;
DATA;
#1 = APPLICATION_PROTOCOL_DEFINITION('international standard',
  'automotive_design',2000,#2);
#2 = APPLICATION_CONTEXT(
  'core data for automotive mechanical design processes');
#3 = SHAPE_DEFINITION_REPRESENTATION(#4,#10);
#4 = PRODUCT_DEFINITION_SHAPE('','',#5);
#5 = PRODUCT_DEFINITION('design','',#6,#9);
#6 = PRODUCT_DEFINITION_FORMATION('','',#7);
#7 = PRODUCT('Body','Body','',(#8));
#8 = PRODUCT_CONTEXT('',#2,'mechanical');
#9 = PRODUCT_DEFINITION_CONTEXT('part definition',#2,'design');
#10 = ADVANCED_BREP_SHAPE_REPRESENTATION('',(#11,#15),#1793);
#11 = AXIS2_PLACEMENT_3D('',#12,#13,#14);
#12 = CARTESIAN_POINT('',(0.,0.,0.));
#13 = DIRECTION('',(0.,0.,1.));
#14 = DIRECTION('',(1.,0.,-0.));
#15 = MANIFOLD_SOLID_BREP('',#16);
#16 = CLOSED_SHELL('',(#17,#82,#113,#138,#162,#413,#437,#461,#481,#505,
    #530,#554,#579,#604,#628,#652,#694,#719,#743,#768,#802,#833,#858,
    #889,#913,#944,#969,#994,#1018,#1042,#1073,#1098,#1122,#1217,#1234,
    #1251,#1263,#1325,#1342,#1359,#1371,#1388,#1405,#1417,#1448,#1473,
    #1498,#1522,#1546,#1571,#1596,#1613,#1646,#1663,#1680,#1705,#1730,
    #1747,#1764,#1781));
#17 = ADVANCED_FACE('',(#18),#77,.T.);
#18 = FACE_BOUND('',#19,.T.);
#19 = EDGE_LOOP('',(#20,#30,#39,#47,#55,#63,#71));
#20 = ORIENTED_EDGE('',*,*,#21,.F.);
#21 = EDGE_CURVE('',#22,#24,#26,.T.);
#22 = VERTEX_POINT('',#23);
#23 = CARTESIAN_POINT('',(-7.7,-14.29999999995,5.6));
#24 = VERTEX_POINT('',#25);
#25 = CARTESIAN_POINT('',(-7.7,-14.29999999995,5.133974596215));
#26 = LINE('',#27,#28);
#27 = CARTESIAN_POINT('',(-7.7,-14.29999999995,6.));
#28 = VECTOR('',#29,1.);
#29 = DIRECTION('',(0.,0.,-1.));
#30 = ORIENTED_EDGE('',*,*,#31,.F.);
#31 = EDGE_CURVE('',#32,#22,#34,.T.);
#32 = VERTEX_POINT('',#33);
#33 = CARTESIAN_POINT('',(-7.7,-13.89999999995,6.));
#34 = CIRCLE('',#35,0.4);
#35 = AXIS2_PLACEMENT_3D('',#36,#37,#38);
#36 = CARTESIAN_POINT('',(-7.7,-13.89999999995,5.6));
#37 = DIRECTION('',(1.,-0.,0.));
#38 = DIRECTION('',(0.,0.,-1.));
#39 = ORIENTED_EDGE('',*,*,#40,.F.);
#40 = EDGE_CURVE('',#41,#32,#43,.T.);
#41 = VERTEX_POINT('',#42);
#42 = CARTESIAN_POINT('',(-7.7,-14.29999999995,6.));
#43 = LINE('',#44,#45);
#44 = CARTESIAN_POINT('',(-7.7,1.008501821713E-11,6.));
#45 = VECTOR('',#46,1.);
#46 = DIRECTION('',(0.,1.,0.));
#47 = ORIENTED_EDGE('',*,*,#48,.F.);
#48 = EDGE_CURVE('',#49,#41,#51,.T.);
#49 = VERTEX_POINT('',#50);
#50 = CARTESIAN_POINT('',(-7.7,-15.79999999995,6.));
#51 = LINE('',#52,#53);
#52 = CARTESIAN_POINT('',(-7.7,-15.79999999995,6.));
#53 = VECTOR('',#54,1.);
#54 = DIRECTION('',(0.,1.,0.));
#55 = ORIENTED_EDGE('',*,*,#56,.F.);
#56 = EDGE_CURVE('',#57,#49,#59,.T.);
#57 = VERTEX_POINT('',#58);
#58 = CARTESIAN_POINT('',(-7.7,-15.79999999995,3.));
#59 = LINE('',#60,#61);
#60 = CARTESIAN_POINT('',(-7.7,-15.79999999995,3.));
#61 = VECTOR('',#62,1.);
#62 = DIRECTION('',(0.,0.,1.));
#63 = ORIENTED_EDGE('',*,*,#64,.F.);
#64 = EDGE_CURVE('',#65,#57,#67,.T.);
#65 = VERTEX_POINT('',#66);
#66 = CARTESIAN_POINT('',(-7.7,-13.2019237886,4.5));
#67 = LINE('',#68,#69);
#68 = CARTESIAN_POINT('',(-7.7,-13.2019237886,4.5));
#69 = VECTOR('',#70,1.);
#70 = DIRECTION('',(0.,-0.866025403785,-0.5));
#71 = ORIENTED_EDGE('',*,*,#72,.F.);
#72 = EDGE_CURVE('',#24,#65,#73,.T.);
#73 = LINE('',#74,#75);
#74 = CARTESIAN_POINT('',(-7.7,-14.29999999995,5.133974596215));
#75 = VECTOR('',#76,1.);
#76 = DIRECTION('',(0.,0.866025403784,-0.5));
#77 = PLANE('',#78);
#78 = AXIS2_PLACEMENT_3D('',#79,#80,#81);
#79 = CARTESIAN_POINT('',(-7.7,1.705668456404E-11,4.637633941329));
#80 = DIRECTION('',(1.,0.,0.));
#81 = DIRECTION('',(0.,0.,1.));
#82 = ADVANCED_FACE('',(#83),#108,.T.);
#83 = FACE_BOUND('',#84,.T.);
#84 = EDGE_LOOP('',(#85,#95,#101,#102));
#85 = ORIENTED_EDGE('',*,*,#86,.F.);
#86 = EDGE_CURVE('',#87,#89,#91,.T.);
#87 = VERTEX_POINT('',#88);
#88 = CARTESIAN_POINT('',(7.7,-14.29999999995,5.6));
#89 = VERTEX_POINT('',#90);
#90 = CARTESIAN_POINT('',(7.7,-14.29999999995,5.133974596215));
#91 = LINE('',#92,#93);
#92 = CARTESIAN_POINT('',(7.7,-14.29999999995,6.));
#93 = VECTOR('',#94,1.);
#94 = DIRECTION('',(0.,0.,-1.));
#95 = ORIENTED_EDGE('',*,*,#96,.T.);
#96 = EDGE_CURVE('',#87,#22,#97,.T.);
#97 = LINE('',#98,#99);
#98 = CARTESIAN_POINT('',(7.7,-14.29999999995,5.6));
#99 = VECTOR('',#100,1.);
#100 = DIRECTION('',(-1.,-0.,-0.));
#101 = ORIENTED_EDGE('',*,*,#21,.T.);
#102 = ORIENTED_EDGE('',*,*,#103,.F.);
#103 = EDGE_CURVE('',#89,#24,#104,.T.);
#104 = LINE('',#105,#106);
#105 = CARTESIAN_POINT('',(7.7,-14.29999999995,5.133974596215));
#106 = VECTOR('',#107,1.);
#107 = DIRECTION('',(-1.,-0.,-0.));
#108 = PLANE('',#109);
#109 = AXIS2_PLACEMENT_3D('',#110,#111,#112);
#110 = CARTESIAN_POINT('',(7.7,-14.29999999995,6.));
#111 = DIRECTION('',(0.,-1.,0.));
#112 = DIRECTION('',(0.,0.,-1.));
#113 = ADVANCED_FACE('',(#114),#133,.T.);
#114 = FACE_BOUND('',#115,.F.);
#115 = EDGE_LOOP('',(#116,#125,#126,#127));
#116 = ORIENTED_EDGE('',*,*,#117,.T.);
#117 = EDGE_CURVE('',#118,#87,#120,.T.);
#118 = VERTEX_POINT('',#119);
#119 = CARTESIAN_POINT('',(7.7,-13.89999999995,6.));
#120 = CIRCLE('',#121,0.4);
#121 = AXIS2_PLACEMENT_3D('',#122,#123,#124);
#122 = CARTESIAN_POINT('',(7.7,-13.89999999995,5.6));
#123 = DIRECTION('',(1.,-0.,0.));
#124 = DIRECTION('',(0.,0.,-1.));
#125 = ORIENTED_EDGE('',*,*,#96,.T.);
#126 = ORIENTED_EDGE('',*,*,#31,.F.);
#127 = ORIENTED_EDGE('',*,*,#128,.F.);
#128 = EDGE_CURVE('',#118,#32,#129,.T.);
#129 = LINE('',#130,#131);
#130 = CARTESIAN_POINT('',(7.7,-13.89999999995,6.));
#131 = VECTOR('',#132,1.);
#132 = DIRECTION('',(-1.,-0.,-0.));
#133 = CYLINDRICAL_SURFACE('',#134,0.4);
#134 = AXIS2_PLACEMENT_3D('',#135,#136,#137);
#135 = CARTESIAN_POINT('',(7.7,-13.89999999995,5.6));
#136 = DIRECTION('',(-1.,-0.,-0.));
#137 = DIRECTION('',(0.,0.,1.));
#138 = ADVANCED_FACE('',(#139),#157,.T.);
#139 = FACE_BOUND('',#140,.T.);
#140 = EDGE_LOOP('',(#141,#142,#143,#151));
#141 = ORIENTED_EDGE('',*,*,#103,.T.);
#142 = ORIENTED_EDGE('',*,*,#72,.T.);
#143 = ORIENTED_EDGE('',*,*,#144,.F.);
#144 = EDGE_CURVE('',#145,#65,#147,.T.);
#145 = VERTEX_POINT('',#146);
#146 = CARTESIAN_POINT('',(7.7,-13.2019237886,4.5));
#147 = LINE('',#148,#149);
#148 = CARTESIAN_POINT('',(7.7,-13.2019237886,4.5));
#149 = VECTOR('',#150,1.);
#150 = DIRECTION('',(-1.,-0.,-0.));
#151 = ORIENTED_EDGE('',*,*,#152,.F.);
#152 = EDGE_CURVE('',#89,#145,#153,.T.);
#153 = LINE('',#154,#155);
#154 = CARTESIAN_POINT('',(7.7,-14.29999999995,5.133974596215));
#155 = VECTOR('',#156,1.);
#156 = DIRECTION('',(0.,0.866025403784,-0.5));
#157 = PLANE('',#158);
#158 = AXIS2_PLACEMENT_3D('',#159,#160,#161);
#159 = CARTESIAN_POINT('',(7.7,-14.29999999995,5.133974596215));
#160 = DIRECTION('',(0.,-0.5,-0.866025403784));
#161 = DIRECTION('',(0.,0.866025403784,-0.5));
#162 = ADVANCED_FACE('',(#163,#306),#408,.T.);
#163 = FACE_BOUND('',#164,.T.);
#164 = EDGE_LOOP('',(#165,#173,#181,#189,#198,#206,#215,#223,#231,#239,
    #247,#255,#263,#271,#280,#288,#297,#303,#304,#305));
#165 = ORIENTED_EDGE('',*,*,#166,.F.);
#166 = EDGE_CURVE('',#167,#118,#169,.T.);
#167 = VERTEX_POINT('',#168);
#168 = CARTESIAN_POINT('',(7.7,-14.29999999995,6.));
#169 = LINE('',#170,#171);
#170 = CARTESIAN_POINT('',(7.7,1.008501821713E-11,6.));
#171 = VECTOR('',#172,1.);
#172 = DIRECTION('',(0.,1.,0.));
#173 = ORIENTED_EDGE('',*,*,#174,.F.);
#174 = EDGE_CURVE('',#175,#167,#177,.T.);
#175 = VERTEX_POINT('',#176);
#176 = CARTESIAN_POINT('',(7.7,-15.79999999995,6.));
#177 = LINE('',#178,#179);
#178 = CARTESIAN_POINT('',(7.7,-15.79999999995,6.));
#179 = VECTOR('',#180,1.);
#180 = DIRECTION('',(0.,1.,0.));
#181 = ORIENTED_EDGE('',*,*,#182,.T.);
#182 = EDGE_CURVE('',#175,#183,#185,.T.);
#183 = VERTEX_POINT('',#184);
#184 = CARTESIAN_POINT('',(33.8,-15.79999999995,6.));
#185 = LINE('',#186,#187);
#186 = CARTESIAN_POINT('',(-35.80000000004,-15.79999999995,6.));
#187 = VECTOR('',#188,1.);
#188 = DIRECTION('',(1.,0.,0.));
#189 = ORIENTED_EDGE('',*,*,#190,.T.);
#190 = EDGE_CURVE('',#183,#191,#193,.T.);
#191 = VERTEX_POINT('',#192);
#192 = CARTESIAN_POINT('',(35.8,-13.79999999995,6.));
#193 = CIRCLE('',#194,2.);
#194 = AXIS2_PLACEMENT_3D('',#195,#196,#197);
#195 = CARTESIAN_POINT('',(33.8,-13.79999999995,6.));
#196 = DIRECTION('',(-0.,0.,1.));
#197 = DIRECTION('',(0.,-1.,0.));
#198 = ORIENTED_EDGE('',*,*,#199,.T.);
#199 = EDGE_CURVE('',#191,#200,#202,.T.);
#200 = VERTEX_POINT('',#201);
#201 = CARTESIAN_POINT('',(35.8,13.8,6.));
#202 = LINE('',#203,#204);
#203 = CARTESIAN_POINT('',(35.8,-15.79999999995,6.));
#204 = VECTOR('',#205,1.);
#205 = DIRECTION('',(0.,1.,0.));
#206 = ORIENTED_EDGE('',*,*,#207,.T.);
#207 = EDGE_CURVE('',#200,#208,#210,.T.);
#208 = VERTEX_POINT('',#209);
#209 = CARTESIAN_POINT('',(33.8,15.8,6.));
#210 = CIRCLE('',#211,2.);
#211 = AXIS2_PLACEMENT_3D('',#212,#213,#214);
#212 = CARTESIAN_POINT('',(33.8,13.8,6.));
#213 = DIRECTION('',(-0.,0.,1.));
#214 = DIRECTION('',(0.,-1.,0.));
#215 = ORIENTED_EDGE('',*,*,#216,.T.);
#216 = EDGE_CURVE('',#208,#217,#219,.T.);
#217 = VERTEX_POINT('',#218);
#218 = CARTESIAN_POINT('',(7.7,15.8,6.));
#219 = LINE('',#220,#221);
#220 = CARTESIAN_POINT('',(35.8,15.8,6.));
#221 = VECTOR('',#222,1.);
#222 = DIRECTION('',(-1.,0.,0.));
#223 = ORIENTED_EDGE('',*,*,#224,.F.);
#224 = EDGE_CURVE('',#225,#217,#227,.T.);
#225 = VERTEX_POINT('',#226);
#226 = CARTESIAN_POINT('',(7.7,14.3,6.));
#227 = LINE('',#228,#229);
#228 = CARTESIAN_POINT('',(7.7,14.3,6.));
#229 = VECTOR('',#230,1.);
#230 = DIRECTION('',(0.,1.,0.));
#231 = ORIENTED_EDGE('',*,*,#232,.T.);
#232 = EDGE_CURVE('',#225,#233,#235,.T.);
#233 = VERTEX_POINT('',#234);
#234 = CARTESIAN_POINT('',(7.7,13.9,6.));
#235 = LINE('',#236,#237);
#236 = CARTESIAN_POINT('',(7.7,1.008501821713E-11,6.));
#237 = VECTOR('',#238,1.);
#238 = DIRECTION('',(-0.,-1.,-0.));
#239 = ORIENTED_EDGE('',*,*,#240,.T.);
#240 = EDGE_CURVE('',#233,#241,#243,.T.);
#241 = VERTEX_POINT('',#242);
#242 = CARTESIAN_POINT('',(-7.7,13.9,6.));
#243 = LINE('',#244,#245);
#244 = CARTESIAN_POINT('',(7.7,13.9,6.));
#245 = VECTOR('',#246,1.);
#246 = DIRECTION('',(-1.,-0.,-0.));
#247 = ORIENTED_EDGE('',*,*,#248,.F.);
#248 = EDGE_CURVE('',#249,#241,#251,.T.);
#249 = VERTEX_POINT('',#250);
#250 = CARTESIAN_POINT('',(-7.7,14.3,6.));
#251 = LINE('',#252,#253);
#252 = CARTESIAN_POINT('',(-7.7,1.008501821713E-11,6.));
#253 = VECTOR('',#254,1.);
#254 = DIRECTION('',(-0.,-1.,-0.));
#255 = ORIENTED_EDGE('',*,*,#256,.T.);
#256 = EDGE_CURVE('',#249,#257,#259,.T.);
#257 = VERTEX_POINT('',#258);
#258 = CARTESIAN_POINT('',(-7.7,15.8,6.));
#259 = LINE('',#260,#261);
#260 = CARTESIAN_POINT('',(-7.7,14.3,6.));
#261 = VECTOR('',#262,1.);
#262 = DIRECTION('',(0.,1.,0.));
#263 = ORIENTED_EDGE('',*,*,#264,.T.);
#264 = EDGE_CURVE('',#257,#265,#267,.T.);
#265 = VERTEX_POINT('',#266);
#266 = CARTESIAN_POINT('',(-33.80000000004,15.8,6.));
#267 = LINE('',#268,#269);
#268 = CARTESIAN_POINT('',(35.8,15.8,6.));
#269 = VECTOR('',#270,1.);
#270 = DIRECTION('',(-1.,0.,0.));
#271 = ORIENTED_EDGE('',*,*,#272,.T.);
#272 = EDGE_CURVE('',#265,#273,#275,.T.);
#273 = VERTEX_POINT('',#274);
#274 = CARTESIAN_POINT('',(-35.80000000004,13.8,6.));
#275 = CIRCLE('',#276,2.);
#276 = AXIS2_PLACEMENT_3D('',#277,#278,#279);
#277 = CARTESIAN_POINT('',(-33.80000000004,13.8,6.));
#278 = DIRECTION('',(-0.,0.,1.));
#279 = DIRECTION('',(0.,-1.,0.));
#280 = ORIENTED_EDGE('',*,*,#281,.T.);
#281 = EDGE_CURVE('',#273,#282,#284,.T.);
#282 = VERTEX_POINT('',#283);
#283 = CARTESIAN_POINT('',(-35.80000000004,-13.79999999995,6.));
#284 = LINE('',#285,#286);
#285 = CARTESIAN_POINT('',(-35.80000000004,15.8,6.));
#286 = VECTOR('',#287,1.);
#287 = DIRECTION('',(0.,-1.,0.));
#288 = ORIENTED_EDGE('',*,*,#289,.F.);
#289 = EDGE_CURVE('',#290,#282,#292,.T.);
#290 = VERTEX_POINT('',#291);
#291 = CARTESIAN_POINT('',(-33.80000000004,-15.79999999995,6.));
#292 = CIRCLE('',#293,2.);
#293 = AXIS2_PLACEMENT_3D('',#294,#295,#296);
#294 = CARTESIAN_POINT('',(-33.80000000004,-13.79999999995,6.));
#295 = DIRECTION('',(-0.,-0.,-1.));
#296 = DIRECTION('',(0.,-1.,0.));
#297 = ORIENTED_EDGE('',*,*,#298,.T.);
#298 = EDGE_CURVE('',#290,#49,#299,.T.);
#299 = LINE('',#300,#301);
#300 = CARTESIAN_POINT('',(-35.80000000004,-15.79999999995,6.));
#301 = VECTOR('',#302,1.);
#302 = DIRECTION('',(1.,0.,0.));
#303 = ORIENTED_EDGE('',*,*,#48,.T.);
#304 = ORIENTED_EDGE('',*,*,#40,.T.);
#305 = ORIENTED_EDGE('',*,*,#128,.F.);
#306 = FACE_BOUND('',#307,.T.);
#307 = EDGE_LOOP('',(#308,#318,#327,#335,#344,#352,#360,#368,#377,#385,
    #394,#402));
#308 = ORIENTED_EDGE('',*,*,#309,.F.);
#309 = EDGE_CURVE('',#310,#312,#314,.T.);
#310 = VERTEX_POINT('',#311);
#311 = CARTESIAN_POINT('',(-31.80000000007,-13.80000000003,6.));
#312 = VERTEX_POINT('',#313);
#313 = CARTESIAN_POINT('',(-10.,-13.80000000003,6.));
#314 = LINE('',#315,#316);
#315 = CARTESIAN_POINT('',(-33.80000000007,-13.80000000003,6.));
#316 = VECTOR('',#317,1.);
#317 = DIRECTION('',(1.,0.,0.));
#318 = ORIENTED_EDGE('',*,*,#319,.T.);
#319 = EDGE_CURVE('',#310,#320,#322,.T.);
#320 = VERTEX_POINT('',#321);
#321 = CARTESIAN_POINT('',(-33.80000000007,-11.80000000003,6.));
#322 = CIRCLE('',#323,2.);
#323 = AXIS2_PLACEMENT_3D('',#324,#325,#326);
#324 = CARTESIAN_POINT('',(-31.80000000007,-11.80000000003,6.));
#325 = DIRECTION('',(-0.,-0.,-1.));
#326 = DIRECTION('',(0.,-1.,0.));
#327 = ORIENTED_EDGE('',*,*,#328,.F.);
#328 = EDGE_CURVE('',#329,#320,#331,.T.);
#329 = VERTEX_POINT('',#330);
#330 = CARTESIAN_POINT('',(-33.80000000007,11.8,6.));
#331 = LINE('',#332,#333);
#332 = CARTESIAN_POINT('',(-33.80000000007,13.8,6.));
#333 = VECTOR('',#334,1.);
#334 = DIRECTION('',(0.,-1.,0.));
#335 = ORIENTED_EDGE('',*,*,#336,.T.);
#336 = EDGE_CURVE('',#329,#337,#339,.T.);
#337 = VERTEX_POINT('',#338);
#338 = CARTESIAN_POINT('',(-31.80000000007,13.8,6.));
#339 = CIRCLE('',#340,2.);
#340 = AXIS2_PLACEMENT_3D('',#341,#342,#343);
#341 = CARTESIAN_POINT('',(-31.80000000007,11.8,6.));
#342 = DIRECTION('',(-0.,-0.,-1.));
#343 = DIRECTION('',(0.,-1.,0.));
#344 = ORIENTED_EDGE('',*,*,#345,.F.);
#345 = EDGE_CURVE('',#346,#337,#348,.T.);
#346 = VERTEX_POINT('',#347);
#347 = CARTESIAN_POINT('',(-10.,13.8,6.));
#348 = LINE('',#349,#350);
#349 = CARTESIAN_POINT('',(33.8,13.8,6.));
#350 = VECTOR('',#351,1.);
#351 = DIRECTION('',(-1.,0.,0.));
#352 = ORIENTED_EDGE('',*,*,#353,.F.);
#353 = EDGE_CURVE('',#354,#346,#356,.T.);
#354 = VERTEX_POINT('',#355);
#355 = CARTESIAN_POINT('',(10.,13.8,6.));
#356 = LINE('',#357,#358);
#357 = CARTESIAN_POINT('',(33.8,13.8,6.));
#358 = VECTOR('',#359,1.);
#359 = DIRECTION('',(-1.,0.,0.));
#360 = ORIENTED_EDGE('',*,*,#361,.F.);
#361 = EDGE_CURVE('',#362,#354,#364,.T.);
#362 = VERTEX_POINT('',#363);
#363 = CARTESIAN_POINT('',(31.8,13.8,6.));
#364 = LINE('',#365,#366);
#365 = CARTESIAN_POINT('',(33.8,13.8,6.));
#366 = VECTOR('',#367,1.);
#367 = DIRECTION('',(-1.,0.,0.));
#368 = ORIENTED_EDGE('',*,*,#369,.F.);
#369 = EDGE_CURVE('',#370,#362,#372,.T.);
#370 = VERTEX_POINT('',#371);
#371 = CARTESIAN_POINT('',(33.8,11.8,6.));
#372 = CIRCLE('',#373,2.);
#373 = AXIS2_PLACEMENT_3D('',#374,#375,#376);
#374 = CARTESIAN_POINT('',(31.8,11.8,6.));
#375 = DIRECTION('',(-0.,0.,1.));
#376 = DIRECTION('',(0.,-1.,0.));
#377 = ORIENTED_EDGE('',*,*,#378,.F.);
#378 = EDGE_CURVE('',#379,#370,#381,.T.);
#379 = VERTEX_POINT('',#380);
#380 = CARTESIAN_POINT('',(33.8,-11.80000000003,6.));
#381 = LINE('',#382,#383);
#382 = CARTESIAN_POINT('',(33.8,-13.80000000003,6.));
#383 = VECTOR('',#384,1.);
#384 = DIRECTION('',(0.,1.,0.));
#385 = ORIENTED_EDGE('',*,*,#386,.F.);
#386 = EDGE_CURVE('',#387,#379,#389,.T.);
#387 = VERTEX_POINT('',#388);
#388 = CARTESIAN_POINT('',(31.8,-13.80000000003,6.));
#389 = CIRCLE('',#390,2.);
#390 = AXIS2_PLACEMENT_3D('',#391,#392,#393);
#391 = CARTESIAN_POINT('',(31.8,-11.80000000003,6.));
#392 = DIRECTION('',(-0.,0.,1.));
#393 = DIRECTION('',(0.,-1.,0.));
#394 = ORIENTED_EDGE('',*,*,#395,.F.);
#395 = EDGE_CURVE('',#396,#387,#398,.T.);
#396 = VERTEX_POINT('',#397);
#397 = CARTESIAN_POINT('',(10.,-13.80000000003,6.));
#398 = LINE('',#399,#400);
#399 = CARTESIAN_POINT('',(-33.80000000007,-13.80000000003,6.));
#400 = VECTOR('',#401,1.);
#401 = DIRECTION('',(1.,0.,0.));
#402 = ORIENTED_EDGE('',*,*,#403,.F.);
#403 = EDGE_CURVE('',#312,#396,#404,.T.);
#404 = LINE('',#405,#406);
#405 = CARTESIAN_POINT('',(-33.80000000007,-13.80000000003,6.));
#406 = VECTOR('',#407,1.);
#407 = DIRECTION('',(1.,0.,0.));
#408 = PLANE('',#409);
#409 = AXIS2_PLACEMENT_3D('',#410,#411,#412);
#410 = CARTESIAN_POINT('',(-2.873916158814E-11,3.113351870215E-12,6.));
#411 = DIRECTION('',(0.,0.,1.));
#412 = DIRECTION('',(1.,0.,0.));
#413 = ADVANCED_FACE('',(#414),#432,.T.);
#414 = FACE_BOUND('',#415,.T.);
#415 = EDGE_LOOP('',(#416,#417,#418,#426));
#416 = ORIENTED_EDGE('',*,*,#144,.T.);
#417 = ORIENTED_EDGE('',*,*,#64,.T.);
#418 = ORIENTED_EDGE('',*,*,#419,.T.);
#419 = EDGE_CURVE('',#57,#420,#422,.T.);
#420 = VERTEX_POINT('',#421);
#421 = CARTESIAN_POINT('',(7.7,-15.79999999995,3.));
#422 = LINE('',#423,#424);
#423 = CARTESIAN_POINT('',(-35.80000000004,-15.79999999995,3.));
#424 = VECTOR('',#425,1.);
#425 = DIRECTION('',(1.,0.,0.));
#426 = ORIENTED_EDGE('',*,*,#427,.F.);
#427 = EDGE_CURVE('',#145,#420,#428,.T.);
#428 = LINE('',#429,#430);
#429 = CARTESIAN_POINT('',(7.7,-13.2019237886,4.5));
#430 = VECTOR('',#431,1.);
#431 = DIRECTION('',(0.,-0.866025403785,-0.5));
#432 = PLANE('',#433);
#433 = AXIS2_PLACEMENT_3D('',#434,#435,#436);
#434 = CARTESIAN_POINT('',(7.7,-13.2019237886,4.5));
#435 = DIRECTION('',(0.,-0.5,0.866025403785));
#436 = DIRECTION('',(0.,-0.866025403785,-0.5));
#437 = ADVANCED_FACE('',(#438),#456,.F.);
#438 = FACE_BOUND('',#439,.F.);
#439 = EDGE_LOOP('',(#440,#448,#454,#455));
#440 = ORIENTED_EDGE('',*,*,#441,.F.);
#441 = EDGE_CURVE('',#442,#57,#444,.T.);
#442 = VERTEX_POINT('',#443);
#443 = CARTESIAN_POINT('',(-33.80000000004,-15.79999999995,3.));
#444 = LINE('',#445,#446);
#445 = CARTESIAN_POINT('',(-35.80000000004,-15.79999999995,3.));
#446 = VECTOR('',#447,1.);
#447 = DIRECTION('',(1.,0.,0.));
#448 = ORIENTED_EDGE('',*,*,#449,.T.);
#449 = EDGE_CURVE('',#442,#290,#450,.T.);
#450 = LINE('',#451,#452);
#451 = CARTESIAN_POINT('',(-33.80000000004,-15.79999999995,3.));
#452 = VECTOR('',#453,1.);
#453 = DIRECTION('',(0.,0.,1.));
#454 = ORIENTED_EDGE('',*,*,#298,.T.);
#455 = ORIENTED_EDGE('',*,*,#56,.F.);
#456 = PLANE('',#457);
#457 = AXIS2_PLACEMENT_3D('',#458,#459,#460);
#458 = CARTESIAN_POINT('',(-35.80000000004,-15.79999999995,3.));
#459 = DIRECTION('',(0.,1.,0.));
#460 = DIRECTION('',(1.,0.,0.));
#461 = ADVANCED_FACE('',(#462),#476,.F.);
#462 = FACE_BOUND('',#463,.F.);
#463 = EDGE_LOOP('',(#464,#465,#466,#467,#468,#474,#475));
#464 = ORIENTED_EDGE('',*,*,#86,.F.);
#465 = ORIENTED_EDGE('',*,*,#117,.F.);
#466 = ORIENTED_EDGE('',*,*,#166,.F.);
#467 = ORIENTED_EDGE('',*,*,#174,.F.);
#468 = ORIENTED_EDGE('',*,*,#469,.F.);
#469 = EDGE_CURVE('',#420,#175,#470,.T.);
#470 = LINE('',#471,#472);
#471 = CARTESIAN_POINT('',(7.7,-15.79999999995,3.));
#472 = VECTOR('',#473,1.);
#473 = DIRECTION('',(0.,0.,1.));
#474 = ORIENTED_EDGE('',*,*,#427,.F.);
#475 = ORIENTED_EDGE('',*,*,#152,.F.);
#476 = PLANE('',#477);
#477 = AXIS2_PLACEMENT_3D('',#478,#479,#480);
#478 = CARTESIAN_POINT('',(7.7,1.705668456404E-11,4.637633941329));
#479 = DIRECTION('',(1.,0.,0.));
#480 = DIRECTION('',(0.,0.,1.));
#481 = ADVANCED_FACE('',(#482),#500,.F.);
#482 = FACE_BOUND('',#483,.F.);
#483 = EDGE_LOOP('',(#484,#492,#493,#494));
#484 = ORIENTED_EDGE('',*,*,#485,.F.);
#485 = EDGE_CURVE('',#420,#486,#488,.T.);
#486 = VERTEX_POINT('',#487);
#487 = CARTESIAN_POINT('',(33.8,-15.79999999995,3.));
#488 = LINE('',#489,#490);
#489 = CARTESIAN_POINT('',(-35.80000000004,-15.79999999995,3.));
#490 = VECTOR('',#491,1.);
#491 = DIRECTION('',(1.,0.,0.));
#492 = ORIENTED_EDGE('',*,*,#469,.T.);
#493 = ORIENTED_EDGE('',*,*,#182,.T.);
#494 = ORIENTED_EDGE('',*,*,#495,.F.);
#495 = EDGE_CURVE('',#486,#183,#496,.T.);
#496 = LINE('',#497,#498);
#497 = CARTESIAN_POINT('',(33.8,-15.79999999995,3.));
#498 = VECTOR('',#499,1.);
#499 = DIRECTION('',(0.,0.,1.));
#500 = PLANE('',#501);
#501 = AXIS2_PLACEMENT_3D('',#502,#503,#504);
#502 = CARTESIAN_POINT('',(-35.80000000004,-15.79999999995,3.));
#503 = DIRECTION('',(0.,1.,0.));
#504 = DIRECTION('',(1.,0.,0.));
#505 = ADVANCED_FACE('',(#506),#525,.T.);
#506 = FACE_BOUND('',#507,.T.);
#507 = EDGE_LOOP('',(#508,#517,#523,#524));
#508 = ORIENTED_EDGE('',*,*,#509,.T.);
#509 = EDGE_CURVE('',#486,#510,#512,.T.);
#510 = VERTEX_POINT('',#511);
#511 = CARTESIAN_POINT('',(35.8,-13.79999999995,3.));
#512 = CIRCLE('',#513,2.);
#513 = AXIS2_PLACEMENT_3D('',#514,#515,#516);
#514 = CARTESIAN_POINT('',(33.8,-13.79999999995,3.));
#515 = DIRECTION('',(-0.,0.,1.));
#516 = DIRECTION('',(0.,-1.,0.));
#517 = ORIENTED_EDGE('',*,*,#518,.T.);
#518 = EDGE_CURVE('',#510,#191,#519,.T.);
#519 = LINE('',#520,#521);
#520 = CARTESIAN_POINT('',(35.8,-13.79999999995,3.));
#521 = VECTOR('',#522,1.);
#522 = DIRECTION('',(0.,0.,1.));
#523 = ORIENTED_EDGE('',*,*,#190,.F.);
#524 = ORIENTED_EDGE('',*,*,#495,.F.);
#525 = CYLINDRICAL_SURFACE('',#526,2.);
#526 = AXIS2_PLACEMENT_3D('',#527,#528,#529);
#527 = CARTESIAN_POINT('',(33.8,-13.79999999995,3.));
#528 = DIRECTION('',(0.,0.,1.));
#529 = DIRECTION('',(0.,-1.,0.));
#530 = ADVANCED_FACE('',(#531),#549,.F.);
#531 = FACE_BOUND('',#532,.F.);
#532 = EDGE_LOOP('',(#533,#541,#542,#543));
#533 = ORIENTED_EDGE('',*,*,#534,.F.);
#534 = EDGE_CURVE('',#510,#535,#537,.T.);
#535 = VERTEX_POINT('',#536);
#536 = CARTESIAN_POINT('',(35.8,13.8,3.));
#537 = LINE('',#538,#539);
#538 = CARTESIAN_POINT('',(35.8,-15.79999999995,3.));
#539 = VECTOR('',#540,1.);
#540 = DIRECTION('',(0.,1.,0.));
#541 = ORIENTED_EDGE('',*,*,#518,.T.);
#542 = ORIENTED_EDGE('',*,*,#199,.T.);
#543 = ORIENTED_EDGE('',*,*,#544,.F.);
#544 = EDGE_CURVE('',#535,#200,#545,.T.);
#545 = LINE('',#546,#547);
#546 = CARTESIAN_POINT('',(35.8,13.8,3.));
#547 = VECTOR('',#548,1.);
#548 = DIRECTION('',(0.,0.,1.));
#549 = PLANE('',#550);
#550 = AXIS2_PLACEMENT_3D('',#551,#552,#553);
#551 = CARTESIAN_POINT('',(35.8,-15.79999999995,3.));
#552 = DIRECTION('',(-1.,0.,0.));
#553 = DIRECTION('',(0.,1.,0.));
#554 = ADVANCED_FACE('',(#555),#574,.T.);
#555 = FACE_BOUND('',#556,.T.);
#556 = EDGE_LOOP('',(#557,#566,#572,#573));
#557 = ORIENTED_EDGE('',*,*,#558,.T.);
#558 = EDGE_CURVE('',#535,#559,#561,.T.);
#559 = VERTEX_POINT('',#560);
#560 = CARTESIAN_POINT('',(33.8,15.8,3.));
#561 = CIRCLE('',#562,2.);
#562 = AXIS2_PLACEMENT_3D('',#563,#564,#565);
#563 = CARTESIAN_POINT('',(33.8,13.8,3.));
#564 = DIRECTION('',(-0.,0.,1.));
#565 = DIRECTION('',(0.,-1.,0.));
#566 = ORIENTED_EDGE('',*,*,#567,.T.);
#567 = EDGE_CURVE('',#559,#208,#568,.T.);
#568 = LINE('',#569,#570);
#569 = CARTESIAN_POINT('',(33.8,15.8,3.));
#570 = VECTOR('',#571,1.);
#571 = DIRECTION('',(0.,0.,1.));
#572 = ORIENTED_EDGE('',*,*,#207,.F.);
#573 = ORIENTED_EDGE('',*,*,#544,.F.);
#574 = CYLINDRICAL_SURFACE('',#575,2.);
#575 = AXIS2_PLACEMENT_3D('',#576,#577,#578);
#576 = CARTESIAN_POINT('',(33.8,13.8,3.));
#577 = DIRECTION('',(0.,0.,1.));
#578 = DIRECTION('',(1.,0.,0.));
#579 = ADVANCED_FACE('',(#580),#599,.T.);
#580 = FACE_BOUND('',#581,.F.);
#581 = EDGE_LOOP('',(#582,#591,#597,#598));
#582 = ORIENTED_EDGE('',*,*,#583,.T.);
#583 = EDGE_CURVE('',#442,#584,#586,.T.);
#584 = VERTEX_POINT('',#585);
#585 = CARTESIAN_POINT('',(-35.80000000004,-13.79999999995,3.));
#586 = CIRCLE('',#587,2.);
#587 = AXIS2_PLACEMENT_3D('',#588,#589,#590);
#588 = CARTESIAN_POINT('',(-33.80000000004,-13.79999999995,3.));
#589 = DIRECTION('',(-0.,-0.,-1.));
#590 = DIRECTION('',(0.,-1.,0.));
#591 = ORIENTED_EDGE('',*,*,#592,.T.);
#592 = EDGE_CURVE('',#584,#282,#593,.T.);
#593 = LINE('',#594,#595);
#594 = CARTESIAN_POINT('',(-35.80000000004,-13.79999999995,3.));
#595 = VECTOR('',#596,1.);
#596 = DIRECTION('',(0.,0.,1.));
#597 = ORIENTED_EDGE('',*,*,#289,.F.);
#598 = ORIENTED_EDGE('',*,*,#449,.F.);
#599 = CYLINDRICAL_SURFACE('',#600,2.);
#600 = AXIS2_PLACEMENT_3D('',#601,#602,#603);
#601 = CARTESIAN_POINT('',(-33.80000000004,-13.79999999995,3.));
#602 = DIRECTION('',(0.,0.,1.));
#603 = DIRECTION('',(0.,-1.,0.));
#604 = ADVANCED_FACE('',(#605),#623,.F.);
#605 = FACE_BOUND('',#606,.F.);
#606 = EDGE_LOOP('',(#607,#615,#616,#617));
#607 = ORIENTED_EDGE('',*,*,#608,.F.);
#608 = EDGE_CURVE('',#559,#609,#611,.T.);
#609 = VERTEX_POINT('',#610);
#610 = CARTESIAN_POINT('',(7.7,15.8,3.));
#611 = LINE('',#612,#613);
#612 = CARTESIAN_POINT('',(35.8,15.8,3.));
#613 = VECTOR('',#614,1.);
#614 = DIRECTION('',(-1.,0.,0.));
#615 = ORIENTED_EDGE('',*,*,#567,.T.);
#616 = ORIENTED_EDGE('',*,*,#216,.T.);
#617 = ORIENTED_EDGE('',*,*,#618,.F.);
#618 = EDGE_CURVE('',#609,#217,#619,.T.);
#619 = LINE('',#620,#621);
#620 = CARTESIAN_POINT('',(7.7,15.8,3.));
#621 = VECTOR('',#622,1.);
#622 = DIRECTION('',(0.,0.,1.));
#623 = PLANE('',#624);
#624 = AXIS2_PLACEMENT_3D('',#625,#626,#627);
#625 = CARTESIAN_POINT('',(35.8,15.8,3.));
#626 = DIRECTION('',(0.,-1.,0.));
#627 = DIRECTION('',(-1.,0.,0.));
#628 = ADVANCED_FACE('',(#629),#647,.F.);
#629 = FACE_BOUND('',#630,.F.);
#630 = EDGE_LOOP('',(#631,#639,#645,#646));
#631 = ORIENTED_EDGE('',*,*,#632,.F.);
#632 = EDGE_CURVE('',#633,#584,#635,.T.);
#633 = VERTEX_POINT('',#634);
#634 = CARTESIAN_POINT('',(-35.80000000004,13.8,3.));
#635 = LINE('',#636,#637);
#636 = CARTESIAN_POINT('',(-35.80000000004,15.8,3.));
#637 = VECTOR('',#638,1.);
#638 = DIRECTION('',(0.,-1.,0.));
#639 = ORIENTED_EDGE('',*,*,#640,.T.);
#640 = EDGE_CURVE('',#633,#273,#641,.T.);
#641 = LINE('',#642,#643);
#642 = CARTESIAN_POINT('',(-35.80000000004,13.8,3.));
#643 = VECTOR('',#644,1.);
#644 = DIRECTION('',(0.,0.,1.));
#645 = ORIENTED_EDGE('',*,*,#281,.T.);
#646 = ORIENTED_EDGE('',*,*,#592,.F.);
#647 = PLANE('',#648);
#648 = AXIS2_PLACEMENT_3D('',#649,#650,#651);
#649 = CARTESIAN_POINT('',(-35.80000000004,15.8,3.));
#650 = DIRECTION('',(1.,0.,0.));
#651 = DIRECTION('',(0.,-1.,0.));
#652 = ADVANCED_FACE('',(#653),#689,.F.);
#653 = FACE_BOUND('',#654,.F.);
#654 = EDGE_LOOP('',(#655,#665,#673,#679,#680,#681,#682));
#655 = ORIENTED_EDGE('',*,*,#656,.F.);
#656 = EDGE_CURVE('',#657,#659,#661,.T.);
#657 = VERTEX_POINT('',#658);
#658 = CARTESIAN_POINT('',(7.7,14.3,5.133974596224));
#659 = VERTEX_POINT('',#660);
#660 = CARTESIAN_POINT('',(7.7,14.3,5.6));
#661 = LINE('',#662,#663);
#662 = CARTESIAN_POINT('',(7.7,14.3,5.133974596224));
#663 = VECTOR('',#664,1.);
#664 = DIRECTION('',(0.,0.,1.));
#665 = ORIENTED_EDGE('',*,*,#666,.F.);
#666 = EDGE_CURVE('',#667,#657,#669,.T.);
#667 = VERTEX_POINT('',#668);
#668 = CARTESIAN_POINT('',(7.7,13.201923788647,4.500000000019));
#669 = LINE('',#670,#671);
#670 = CARTESIAN_POINT('',(7.7,13.201923788647,4.500000000019));
#671 = VECTOR('',#672,1.);
#672 = DIRECTION('',(0.,0.866025403788,0.499999999994));
#673 = ORIENTED_EDGE('',*,*,#674,.T.);
#674 = EDGE_CURVE('',#667,#609,#675,.T.);
#675 = LINE('',#676,#677);
#676 = CARTESIAN_POINT('',(7.7,13.201923788647,4.500000000019));
#677 = VECTOR('',#678,1.);
#678 = DIRECTION('',(0.,0.866025403782,-0.500000000005));
#679 = ORIENTED_EDGE('',*,*,#618,.T.);
#680 = ORIENTED_EDGE('',*,*,#224,.F.);
#681 = ORIENTED_EDGE('',*,*,#232,.T.);
#682 = ORIENTED_EDGE('',*,*,#683,.T.);
#683 = EDGE_CURVE('',#233,#659,#684,.T.);
#684 = CIRCLE('',#685,0.4);
#685 = AXIS2_PLACEMENT_3D('',#686,#687,#688);
#686 = CARTESIAN_POINT('',(7.7,13.9,5.6));
#687 = DIRECTION('',(-1.,-0.,-0.));
#688 = DIRECTION('',(0.,0.,-1.));
#689 = PLANE('',#690);
#690 = AXIS2_PLACEMENT_3D('',#691,#692,#693);
#691 = CARTESIAN_POINT('',(7.7,1.705668456404E-11,4.637633941329));
#692 = DIRECTION('',(1.,0.,0.));
#693 = DIRECTION('',(0.,0.,1.));
#694 = ADVANCED_FACE('',(#695),#714,.T.);
#695 = FACE_BOUND('',#696,.T.);
#696 = EDGE_LOOP('',(#697,#706,#707,#708));
#697 = ORIENTED_EDGE('',*,*,#698,.T.);
#698 = EDGE_CURVE('',#699,#633,#701,.T.);
#699 = VERTEX_POINT('',#700);
#700 = CARTESIAN_POINT('',(-33.80000000004,15.8,3.));
#701 = CIRCLE('',#702,2.);
#702 = AXIS2_PLACEMENT_3D('',#703,#704,#705);
#703 = CARTESIAN_POINT('',(-33.80000000004,13.8,3.));
#704 = DIRECTION('',(-0.,0.,1.));
#705 = DIRECTION('',(0.,-1.,0.));
#706 = ORIENTED_EDGE('',*,*,#640,.T.);
#707 = ORIENTED_EDGE('',*,*,#272,.F.);
#708 = ORIENTED_EDGE('',*,*,#709,.F.);
#709 = EDGE_CURVE('',#699,#265,#710,.T.);
#710 = LINE('',#711,#712);
#711 = CARTESIAN_POINT('',(-33.80000000004,15.8,3.));
#712 = VECTOR('',#713,1.);
#713 = DIRECTION('',(0.,0.,1.));
#714 = CYLINDRICAL_SURFACE('',#715,2.);
#715 = AXIS2_PLACEMENT_3D('',#716,#717,#718);
#716 = CARTESIAN_POINT('',(-33.80000000004,13.8,3.));
#717 = DIRECTION('',(0.,0.,1.));
#718 = DIRECTION('',(0.,1.,0.));
#719 = ADVANCED_FACE('',(#720),#738,.F.);
#720 = FACE_BOUND('',#721,.F.);
#721 = EDGE_LOOP('',(#722,#730,#736,#737));
#722 = ORIENTED_EDGE('',*,*,#723,.F.);
#723 = EDGE_CURVE('',#724,#699,#726,.T.);
#724 = VERTEX_POINT('',#725);
#725 = CARTESIAN_POINT('',(-7.7,15.8,3.));
#726 = LINE('',#727,#728);
#727 = CARTESIAN_POINT('',(35.8,15.8,3.));
#728 = VECTOR('',#729,1.);
#729 = DIRECTION('',(-1.,0.,0.));
#730 = ORIENTED_EDGE('',*,*,#731,.T.);
#731 = EDGE_CURVE('',#724,#257,#732,.T.);
#732 = LINE('',#733,#734);
#733 = CARTESIAN_POINT('',(-7.7,15.8,3.));
#734 = VECTOR('',#735,1.);
#735 = DIRECTION('',(0.,0.,1.));
#736 = ORIENTED_EDGE('',*,*,#264,.T.);
#737 = ORIENTED_EDGE('',*,*,#709,.F.);
#738 = PLANE('',#739);
#739 = AXIS2_PLACEMENT_3D('',#740,#741,#742);
#740 = CARTESIAN_POINT('',(35.8,15.8,3.));
#741 = DIRECTION('',(0.,-1.,0.));
#742 = DIRECTION('',(-1.,0.,0.));
#743 = ADVANCED_FACE('',(#744),#763,.T.);
#744 = FACE_BOUND('',#745,.T.);
#745 = EDGE_LOOP('',(#746,#747,#755,#762));
#746 = ORIENTED_EDGE('',*,*,#683,.T.);
#747 = ORIENTED_EDGE('',*,*,#748,.T.);
#748 = EDGE_CURVE('',#659,#749,#751,.T.);
#749 = VERTEX_POINT('',#750);
#750 = CARTESIAN_POINT('',(-7.7,14.3,5.6));
#751 = LINE('',#752,#753);
#752 = CARTESIAN_POINT('',(7.7,14.3,5.6));
#753 = VECTOR('',#754,1.);
#754 = DIRECTION('',(-1.,-0.,-0.));
#755 = ORIENTED_EDGE('',*,*,#756,.F.);
#756 = EDGE_CURVE('',#241,#749,#757,.T.);
#757 = CIRCLE('',#758,0.4);
#758 = AXIS2_PLACEMENT_3D('',#759,#760,#761);
#759 = CARTESIAN_POINT('',(-7.7,13.9,5.6));
#760 = DIRECTION('',(-1.,-0.,-0.));
#761 = DIRECTION('',(0.,0.,-1.));
#762 = ORIENTED_EDGE('',*,*,#240,.F.);
#763 = CYLINDRICAL_SURFACE('',#764,0.4);
#764 = AXIS2_PLACEMENT_3D('',#765,#766,#767);
#765 = CARTESIAN_POINT('',(7.7,13.9,5.6));
#766 = DIRECTION('',(-1.,-0.,-0.));
#767 = DIRECTION('',(0.,0.,1.));
#768 = ADVANCED_FACE('',(#769),#797,.T.);
#769 = FACE_BOUND('',#770,.T.);
#770 = EDGE_LOOP('',(#771,#779,#787,#793,#794,#795,#796));
#771 = ORIENTED_EDGE('',*,*,#772,.F.);
#772 = EDGE_CURVE('',#773,#749,#775,.T.);
#773 = VERTEX_POINT('',#774);
#774 = CARTESIAN_POINT('',(-7.7,14.3,5.133974596224));
#775 = LINE('',#776,#777);
#776 = CARTESIAN_POINT('',(-7.7,14.3,5.133974596224));
#777 = VECTOR('',#778,1.);
#778 = DIRECTION('',(0.,0.,1.));
#779 = ORIENTED_EDGE('',*,*,#780,.F.);
#780 = EDGE_CURVE('',#781,#773,#783,.T.);
#781 = VERTEX_POINT('',#782);
#782 = CARTESIAN_POINT('',(-7.7,13.201923788647,4.500000000019));
#783 = LINE('',#784,#785);
#784 = CARTESIAN_POINT('',(-7.7,13.201923788647,4.500000000019));
#785 = VECTOR('',#786,1.);
#786 = DIRECTION('',(0.,0.866025403788,0.499999999994));
#787 = ORIENTED_EDGE('',*,*,#788,.T.);
#788 = EDGE_CURVE('',#781,#724,#789,.T.);
#789 = LINE('',#790,#791);
#790 = CARTESIAN_POINT('',(-7.7,13.201923788647,4.500000000019));
#791 = VECTOR('',#792,1.);
#792 = DIRECTION('',(0.,0.866025403782,-0.500000000005));
#793 = ORIENTED_EDGE('',*,*,#731,.T.);
#794 = ORIENTED_EDGE('',*,*,#256,.F.);
#795 = ORIENTED_EDGE('',*,*,#248,.T.);
#796 = ORIENTED_EDGE('',*,*,#756,.T.);
#797 = PLANE('',#798);
#798 = AXIS2_PLACEMENT_3D('',#799,#800,#801);
#799 = CARTESIAN_POINT('',(-7.7,1.705668456404E-11,4.637633941329));
#800 = DIRECTION('',(1.,0.,0.));
#801 = DIRECTION('',(0.,0.,1.));
#802 = ADVANCED_FACE('',(#803),#828,.T.);
#803 = FACE_BOUND('',#804,.T.);
#804 = EDGE_LOOP('',(#805,#815,#821,#822));
#805 = ORIENTED_EDGE('',*,*,#806,.F.);
#806 = EDGE_CURVE('',#807,#809,#811,.T.);
#807 = VERTEX_POINT('',#808);
#808 = CARTESIAN_POINT('',(-31.80000000007,-13.80000000003,3.));
#809 = VERTEX_POINT('',#810);
#810 = CARTESIAN_POINT('',(-10.,-13.80000000003,3.));
#811 = LINE('',#812,#813);
#812 = CARTESIAN_POINT('',(-33.80000000007,-13.80000000003,3.));
#813 = VECTOR('',#814,1.);
#814 = DIRECTION('',(1.,0.,0.));
#815 = ORIENTED_EDGE('',*,*,#816,.T.);
#816 = EDGE_CURVE('',#807,#310,#817,.T.);
#817 = LINE('',#818,#819);
#818 = CARTESIAN_POINT('',(-31.80000000007,-13.80000000003,3.));
#819 = VECTOR('',#820,1.);
#820 = DIRECTION('',(0.,0.,1.));
#821 = ORIENTED_EDGE('',*,*,#309,.T.);
#822 = ORIENTED_EDGE('',*,*,#823,.T.);
#823 = EDGE_CURVE('',#312,#809,#824,.T.);
#824 = LINE('',#825,#826);
#825 = CARTESIAN_POINT('',(-10.,-13.80000000003,6.));
#826 = VECTOR('',#827,1.);
#827 = DIRECTION('',(0.,0.,-1.));
#828 = PLANE('',#829);
#829 = AXIS2_PLACEMENT_3D('',#830,#831,#832);
#830 = CARTESIAN_POINT('',(-33.80000000007,-13.80000000003,3.));
#831 = DIRECTION('',(0.,1.,0.));
#832 = DIRECTION('',(1.,0.,0.));
#833 = ADVANCED_FACE('',(#834),#853,.F.);
#834 = FACE_BOUND('',#835,.T.);
#835 = EDGE_LOOP('',(#836,#845,#851,#852));
#836 = ORIENTED_EDGE('',*,*,#837,.T.);
#837 = EDGE_CURVE('',#807,#838,#840,.T.);
#838 = VERTEX_POINT('',#839);
#839 = CARTESIAN_POINT('',(-33.80000000007,-11.80000000003,3.));
#840 = CIRCLE('',#841,2.);
#841 = AXIS2_PLACEMENT_3D('',#842,#843,#844);
#842 = CARTESIAN_POINT('',(-31.80000000007,-11.80000000003,3.));
#843 = DIRECTION('',(-0.,-0.,-1.));
#844 = DIRECTION('',(0.,-1.,0.));
#845 = ORIENTED_EDGE('',*,*,#846,.T.);
#846 = EDGE_CURVE('',#838,#320,#847,.T.);
#847 = LINE('',#848,#849);
#848 = CARTESIAN_POINT('',(-33.80000000007,-11.80000000003,3.));
#849 = VECTOR('',#850,1.);
#850 = DIRECTION('',(0.,0.,1.));
#851 = ORIENTED_EDGE('',*,*,#319,.F.);
#852 = ORIENTED_EDGE('',*,*,#816,.F.);
#853 = CYLINDRICAL_SURFACE('',#854,2.);
#854 = AXIS2_PLACEMENT_3D('',#855,#856,#857);
#855 = CARTESIAN_POINT('',(-31.80000000007,-11.80000000003,3.));
#856 = DIRECTION('',(0.,0.,1.));
#857 = DIRECTION('',(0.,-1.,0.));
#858 = ADVANCED_FACE('',(#859),#884,.T.);
#859 = FACE_BOUND('',#860,.T.);
#860 = EDGE_LOOP('',(#861,#862,#870,#878));
#861 = ORIENTED_EDGE('',*,*,#403,.T.);
#862 = ORIENTED_EDGE('',*,*,#863,.T.);
#863 = EDGE_CURVE('',#396,#864,#866,.T.);
#864 = VERTEX_POINT('',#865);
#865 = CARTESIAN_POINT('',(10.,-10.80000000003,6.));
#866 = LINE('',#867,#868);
#867 = CARTESIAN_POINT('',(10.,-13.80000000003,6.));
#868 = VECTOR('',#869,1.);
#869 = DIRECTION('',(0.,1.,0.));
#870 = ORIENTED_EDGE('',*,*,#871,.F.);
#871 = EDGE_CURVE('',#872,#864,#874,.T.);
#872 = VERTEX_POINT('',#873);
#873 = CARTESIAN_POINT('',(-10.,-10.80000000003,6.));
#874 = LINE('',#875,#876);
#875 = CARTESIAN_POINT('',(-10.,-10.80000000003,6.));
#876 = VECTOR('',#877,1.);
#877 = DIRECTION('',(1.,0.,0.));
#878 = ORIENTED_EDGE('',*,*,#879,.F.);
#879 = EDGE_CURVE('',#312,#872,#880,.T.);
#880 = LINE('',#881,#882);
#881 = CARTESIAN_POINT('',(-10.,-13.80000000003,6.));
#882 = VECTOR('',#883,1.);
#883 = DIRECTION('',(0.,1.,0.));
#884 = PLANE('',#885);
#885 = AXIS2_PLACEMENT_3D('',#886,#887,#888);
#886 = CARTESIAN_POINT('',(-10.,-13.80000000003,6.));
#887 = DIRECTION('',(0.,0.,1.));
#888 = DIRECTION('',(0.,1.,0.));
#889 = ADVANCED_FACE('',(#890),#908,.T.);
#890 = FACE_BOUND('',#891,.T.);
#891 = EDGE_LOOP('',(#892,#900,#906,#907));
#892 = ORIENTED_EDGE('',*,*,#893,.F.);
#893 = EDGE_CURVE('',#894,#838,#896,.T.);
#894 = VERTEX_POINT('',#895);
#895 = CARTESIAN_POINT('',(-33.80000000007,11.8,3.));
#896 = LINE('',#897,#898);
#897 = CARTESIAN_POINT('',(-33.80000000007,13.8,3.));
#898 = VECTOR('',#899,1.);
#899 = DIRECTION('',(0.,-1.,0.));
#900 = ORIENTED_EDGE('',*,*,#901,.T.);
#901 = EDGE_CURVE('',#894,#329,#902,.T.);
#902 = LINE('',#903,#904);
#903 = CARTESIAN_POINT('',(-33.80000000007,11.8,3.));
#904 = VECTOR('',#905,1.);
#905 = DIRECTION('',(0.,0.,1.));
#906 = ORIENTED_EDGE('',*,*,#328,.T.);
#907 = ORIENTED_EDGE('',*,*,#846,.F.);
#908 = PLANE('',#909);
#909 = AXIS2_PLACEMENT_3D('',#910,#911,#912);
#910 = CARTESIAN_POINT('',(-33.80000000007,13.8,3.));
#911 = DIRECTION('',(1.,0.,0.));
#912 = DIRECTION('',(0.,-1.,0.));
#913 = ADVANCED_FACE('',(#914),#939,.T.);
#914 = FACE_BOUND('',#915,.T.);
#915 = EDGE_LOOP('',(#916,#926,#932,#933));
#916 = ORIENTED_EDGE('',*,*,#917,.F.);
#917 = EDGE_CURVE('',#918,#920,#922,.T.);
#918 = VERTEX_POINT('',#919);
#919 = CARTESIAN_POINT('',(10.,-13.80000000003,3.));
#920 = VERTEX_POINT('',#921);
#921 = CARTESIAN_POINT('',(31.8,-13.80000000003,3.));
#922 = LINE('',#923,#924);
#923 = CARTESIAN_POINT('',(-33.80000000007,-13.80000000003,3.));
#924 = VECTOR('',#925,1.);
#925 = DIRECTION('',(1.,0.,0.));
#926 = ORIENTED_EDGE('',*,*,#927,.F.);
#927 = EDGE_CURVE('',#396,#918,#928,.T.);
#928 = LINE('',#929,#930);
#929 = CARTESIAN_POINT('',(10.,-13.80000000003,6.));
#930 = VECTOR('',#931,1.);
#931 = DIRECTION('',(0.,0.,-1.));
#932 = ORIENTED_EDGE('',*,*,#395,.T.);
#933 = ORIENTED_EDGE('',*,*,#934,.F.);
#934 = EDGE_CURVE('',#920,#387,#935,.T.);
#935 = LINE('',#936,#937);
#936 = CARTESIAN_POINT('',(31.8,-13.80000000003,3.));
#937 = VECTOR('',#938,1.);
#938 = DIRECTION('',(0.,0.,1.));
#939 = PLANE('',#940);
#940 = AXIS2_PLACEMENT_3D('',#941,#942,#943);
#941 = CARTESIAN_POINT('',(-33.80000000007,-13.80000000003,3.));
#942 = DIRECTION('',(0.,1.,0.));
#943 = DIRECTION('',(1.,0.,0.));
#944 = ADVANCED_FACE('',(#945),#964,.F.);
#945 = FACE_BOUND('',#946,.T.);
#946 = EDGE_LOOP('',(#947,#956,#962,#963));
#947 = ORIENTED_EDGE('',*,*,#948,.T.);
#948 = EDGE_CURVE('',#894,#949,#951,.T.);
#949 = VERTEX_POINT('',#950);
#950 = CARTESIAN_POINT('',(-31.80000000007,13.8,3.));
#951 = CIRCLE('',#952,2.);
#952 = AXIS2_PLACEMENT_3D('',#953,#954,#955);
#953 = CARTESIAN_POINT('',(-31.80000000007,11.8,3.));
#954 = DIRECTION('',(-0.,-0.,-1.));
#955 = DIRECTION('',(0.,-1.,0.));
#956 = ORIENTED_EDGE('',*,*,#957,.T.);
#957 = EDGE_CURVE('',#949,#337,#958,.T.);
#958 = LINE('',#959,#960);
#959 = CARTESIAN_POINT('',(-31.80000000007,13.8,3.));
#960 = VECTOR('',#961,1.);
#961 = DIRECTION('',(0.,0.,1.));
#962 = ORIENTED_EDGE('',*,*,#336,.F.);
#963 = ORIENTED_EDGE('',*,*,#901,.F.);
#964 = CYLINDRICAL_SURFACE('',#965,2.);
#965 = AXIS2_PLACEMENT_3D('',#966,#967,#968);
#966 = CARTESIAN_POINT('',(-31.80000000007,11.8,3.));
#967 = DIRECTION('',(0.,0.,1.));
#968 = DIRECTION('',(-1.,0.,0.));
#969 = ADVANCED_FACE('',(#970),#989,.F.);
#970 = FACE_BOUND('',#971,.F.);
#971 = EDGE_LOOP('',(#972,#981,#987,#988));
#972 = ORIENTED_EDGE('',*,*,#973,.T.);
#973 = EDGE_CURVE('',#920,#974,#976,.T.);
#974 = VERTEX_POINT('',#975);
#975 = CARTESIAN_POINT('',(33.8,-11.80000000003,3.));
#976 = CIRCLE('',#977,2.);
#977 = AXIS2_PLACEMENT_3D('',#978,#979,#980);
#978 = CARTESIAN_POINT('',(31.8,-11.80000000003,3.));
#979 = DIRECTION('',(-0.,0.,1.));
#980 = DIRECTION('',(0.,-1.,0.));
#981 = ORIENTED_EDGE('',*,*,#982,.T.);
#982 = EDGE_CURVE('',#974,#379,#983,.T.);
#983 = LINE('',#984,#985);
#984 = CARTESIAN_POINT('',(33.8,-11.80000000003,3.));
#985 = VECTOR('',#986,1.);
#986 = DIRECTION('',(0.,0.,1.));
#987 = ORIENTED_EDGE('',*,*,#386,.F.);
#988 = ORIENTED_EDGE('',*,*,#934,.F.);
#989 = CYLINDRICAL_SURFACE('',#990,2.);
#990 = AXIS2_PLACEMENT_3D('',#991,#992,#993);
#991 = CARTESIAN_POINT('',(31.8,-11.80000000003,3.));
#992 = DIRECTION('',(0.,0.,1.));
#993 = DIRECTION('',(0.,-1.,0.));
#994 = ADVANCED_FACE('',(#995),#1013,.T.);
#995 = FACE_BOUND('',#996,.T.);
#996 = EDGE_LOOP('',(#997,#1005,#1011,#1012));
#997 = ORIENTED_EDGE('',*,*,#998,.F.);
#998 = EDGE_CURVE('',#999,#949,#1001,.T.);
#999 = VERTEX_POINT('',#1000);
#1000 = CARTESIAN_POINT('',(-10.,13.8,3.));
#1001 = LINE('',#1002,#1003);
#1002 = CARTESIAN_POINT('',(33.8,13.8,3.));
#1003 = VECTOR('',#1004,1.);
#1004 = DIRECTION('',(-1.,0.,0.));
#1005 = ORIENTED_EDGE('',*,*,#1006,.T.);
#1006 = EDGE_CURVE('',#999,#346,#1007,.T.);
#1007 = LINE('',#1008,#1009);
#1008 = CARTESIAN_POINT('',(-10.,13.8,3.));
#1009 = VECTOR('',#1010,1.);
#1010 = DIRECTION('',(0.,0.,1.));
#1011 = ORIENTED_EDGE('',*,*,#345,.T.);
#1012 = ORIENTED_EDGE('',*,*,#957,.F.);
#1013 = PLANE('',#1014);
#1014 = AXIS2_PLACEMENT_3D('',#1015,#1016,#1017);
#1015 = CARTESIAN_POINT('',(33.8,13.8,3.));
#1016 = DIRECTION('',(0.,-1.,0.));
#1017 = DIRECTION('',(-1.,0.,0.));
#1018 = ADVANCED_FACE('',(#1019),#1037,.T.);
#1019 = FACE_BOUND('',#1020,.T.);
#1020 = EDGE_LOOP('',(#1021,#1029,#1030,#1031));
#1021 = ORIENTED_EDGE('',*,*,#1022,.F.);
#1022 = EDGE_CURVE('',#974,#1023,#1025,.T.);
#1023 = VERTEX_POINT('',#1024);
#1024 = CARTESIAN_POINT('',(33.8,11.8,3.));
#1025 = LINE('',#1026,#1027);
#1026 = CARTESIAN_POINT('',(33.8,-13.80000000003,3.));
#1027 = VECTOR('',#1028,1.);
#1028 = DIRECTION('',(0.,1.,0.));
#1029 = ORIENTED_EDGE('',*,*,#982,.T.);
#1030 = ORIENTED_EDGE('',*,*,#378,.T.);
#1031 = ORIENTED_EDGE('',*,*,#1032,.F.);
#1032 = EDGE_CURVE('',#1023,#370,#1033,.T.);
#1033 = LINE('',#1034,#1035);
#1034 = CARTESIAN_POINT('',(33.8,11.8,3.));
#1035 = VECTOR('',#1036,1.);
#1036 = DIRECTION('',(0.,0.,1.));
#1037 = PLANE('',#1038);
#1038 = AXIS2_PLACEMENT_3D('',#1039,#1040,#1041);
#1039 = CARTESIAN_POINT('',(33.8,-13.80000000003,3.));
#1040 = DIRECTION('',(-1.,0.,0.));
#1041 = DIRECTION('',(0.,1.,0.));
#1042 = ADVANCED_FACE('',(#1043),#1068,.F.);
#1043 = FACE_BOUND('',#1044,.F.);
#1044 = EDGE_LOOP('',(#1045,#1046,#1054,#1062));
#1045 = ORIENTED_EDGE('',*,*,#353,.F.);
#1046 = ORIENTED_EDGE('',*,*,#1047,.T.);
#1047 = EDGE_CURVE('',#354,#1048,#1050,.T.);
#1048 = VERTEX_POINT('',#1049);
#1049 = CARTESIAN_POINT('',(10.,10.8,6.));
#1050 = LINE('',#1051,#1052);
#1051 = CARTESIAN_POINT('',(10.,13.8,6.));
#1052 = VECTOR('',#1053,1.);
#1053 = DIRECTION('',(0.,-1.,0.));
#1054 = ORIENTED_EDGE('',*,*,#1055,.F.);
#1055 = EDGE_CURVE('',#1056,#1048,#1058,.T.);
#1056 = VERTEX_POINT('',#1057);
#1057 = CARTESIAN_POINT('',(-10.,10.8,6.));
#1058 = LINE('',#1059,#1060);
#1059 = CARTESIAN_POINT('',(-10.,10.8,6.));
#1060 = VECTOR('',#1061,1.);
#1061 = DIRECTION('',(1.,0.,0.));
#1062 = ORIENTED_EDGE('',*,*,#1063,.F.);
#1063 = EDGE_CURVE('',#346,#1056,#1064,.T.);
#1064 = LINE('',#1065,#1066);
#1065 = CARTESIAN_POINT('',(-10.,13.8,6.));
#1066 = VECTOR('',#1067,1.);
#1067 = DIRECTION('',(0.,-1.,0.));
#1068 = PLANE('',#1069);
#1069 = AXIS2_PLACEMENT_3D('',#1070,#1071,#1072);
#1070 = CARTESIAN_POINT('',(-10.,13.8,6.));
#1071 = DIRECTION('',(0.,0.,-1.));
#1072 = DIRECTION('',(0.,-1.,0.));
#1073 = ADVANCED_FACE('',(#1074),#1093,.F.);
#1074 = FACE_BOUND('',#1075,.F.);
#1075 = EDGE_LOOP('',(#1076,#1085,#1091,#1092));
#1076 = ORIENTED_EDGE('',*,*,#1077,.T.);
#1077 = EDGE_CURVE('',#1023,#1078,#1080,.T.);
#1078 = VERTEX_POINT('',#1079);
#1079 = CARTESIAN_POINT('',(31.8,13.8,3.));
#1080 = CIRCLE('',#1081,2.);
#1081 = AXIS2_PLACEMENT_3D('',#1082,#1083,#1084);
#1082 = CARTESIAN_POINT('',(31.8,11.8,3.));
#1083 = DIRECTION('',(-0.,0.,1.));
#1084 = DIRECTION('',(0.,-1.,0.));
#1085 = ORIENTED_EDGE('',*,*,#1086,.T.);
#1086 = EDGE_CURVE('',#1078,#362,#1087,.T.);
#1087 = LINE('',#1088,#1089);
#1088 = CARTESIAN_POINT('',(31.8,13.8,3.));
#1089 = VECTOR('',#1090,1.);
#1090 = DIRECTION('',(0.,0.,1.));
#1091 = ORIENTED_EDGE('',*,*,#369,.F.);
#1092 = ORIENTED_EDGE('',*,*,#1032,.F.);
#1093 = CYLINDRICAL_SURFACE('',#1094,2.);
#1094 = AXIS2_PLACEMENT_3D('',#1095,#1096,#1097);
#1095 = CARTESIAN_POINT('',(31.8,11.8,3.));
#1096 = DIRECTION('',(0.,0.,1.));
#1097 = DIRECTION('',(1.,0.,0.));
#1098 = ADVANCED_FACE('',(#1099),#1117,.T.);
#1099 = FACE_BOUND('',#1100,.T.);
#1100 = EDGE_LOOP('',(#1101,#1109,#1110,#1111));
#1101 = ORIENTED_EDGE('',*,*,#1102,.F.);
#1102 = EDGE_CURVE('',#1078,#1103,#1105,.T.);
#1103 = VERTEX_POINT('',#1104);
#1104 = CARTESIAN_POINT('',(10.,13.8,3.));
#1105 = LINE('',#1106,#1107);
#1106 = CARTESIAN_POINT('',(33.8,13.8,3.));
#1107 = VECTOR('',#1108,1.);
#1108 = DIRECTION('',(-1.,0.,0.));
#1109 = ORIENTED_EDGE('',*,*,#1086,.T.);
#1110 = ORIENTED_EDGE('',*,*,#361,.T.);
#1111 = ORIENTED_EDGE('',*,*,#1112,.F.);
#1112 = EDGE_CURVE('',#1103,#354,#1113,.T.);
#1113 = LINE('',#1114,#1115);
#1114 = CARTESIAN_POINT('',(10.,13.8,3.));
#1115 = VECTOR('',#1116,1.);
#1116 = DIRECTION('',(0.,0.,1.));
#1117 = PLANE('',#1118);
#1118 = AXIS2_PLACEMENT_3D('',#1119,#1120,#1121);
#1119 = CARTESIAN_POINT('',(33.8,13.8,3.));
#1120 = DIRECTION('',(0.,-1.,0.));
#1121 = DIRECTION('',(-1.,0.,0.));
#1122 = ADVANCED_FACE('',(#1123,#1193),#1212,.T.);
#1123 = FACE_BOUND('',#1124,.T.);
#1124 = EDGE_LOOP('',(#1125,#1135,#1144,#1152,#1161,#1169,#1178,#1186));
#1125 = ORIENTED_EDGE('',*,*,#1126,.T.);
#1126 = EDGE_CURVE('',#1127,#1129,#1131,.T.);
#1127 = VERTEX_POINT('',#1128);
#1128 = CARTESIAN_POINT('',(-36.,-18.,3.));
#1129 = VERTEX_POINT('',#1130);
#1130 = CARTESIAN_POINT('',(36.,-18.,3.));
#1131 = LINE('',#1132,#1133);
#1132 = CARTESIAN_POINT('',(-38.,-18.,3.));
#1133 = VECTOR('',#1134,1.);
#1134 = DIRECTION('',(1.,0.,0.));
#1135 = ORIENTED_EDGE('',*,*,#1136,.T.);
#1136 = EDGE_CURVE('',#1129,#1137,#1139,.T.);
#1137 = VERTEX_POINT('',#1138);
#1138 = CARTESIAN_POINT('',(38.,-16.,3.));
#1139 = CIRCLE('',#1140,2.);
#1140 = AXIS2_PLACEMENT_3D('',#1141,#1142,#1143);
#1141 = CARTESIAN_POINT('',(36.,-16.,3.));
#1142 = DIRECTION('',(-0.,0.,1.));
#1143 = DIRECTION('',(0.,-1.,0.));
#1144 = ORIENTED_EDGE('',*,*,#1145,.T.);
#1145 = EDGE_CURVE('',#1137,#1146,#1148,.T.);
#1146 = VERTEX_POINT('',#1147);
#1147 = CARTESIAN_POINT('',(38.,16.,3.));
#1148 = LINE('',#1149,#1150);
#1149 = CARTESIAN_POINT('',(38.,-18.,3.));
#1150 = VECTOR('',#1151,1.);
#1151 = DIRECTION('',(0.,1.,0.));
#1152 = ORIENTED_EDGE('',*,*,#1153,.T.);
#1153 = EDGE_CURVE('',#1146,#1154,#1156,.T.);
#1154 = VERTEX_POINT('',#1155);
#1155 = CARTESIAN_POINT('',(36.,18.,3.));
#1156 = CIRCLE('',#1157,2.);
#1157 = AXIS2_PLACEMENT_3D('',#1158,#1159,#1160);
#1158 = CARTESIAN_POINT('',(36.,16.,3.));
#1159 = DIRECTION('',(-0.,0.,1.));
#1160 = DIRECTION('',(0.,-1.,0.));
#1161 = ORIENTED_EDGE('',*,*,#1162,.T.);
#1162 = EDGE_CURVE('',#1154,#1163,#1165,.T.);
#1163 = VERTEX_POINT('',#1164);
#1164 = CARTESIAN_POINT('',(-36.,18.,3.));
#1165 = LINE('',#1166,#1167);
#1166 = CARTESIAN_POINT('',(38.,18.,3.));
#1167 = VECTOR('',#1168,1.);
#1168 = DIRECTION('',(-1.,0.,0.));
#1169 = ORIENTED_EDGE('',*,*,#1170,.F.);
#1170 = EDGE_CURVE('',#1171,#1163,#1173,.T.);
#1171 = VERTEX_POINT('',#1172);
#1172 = CARTESIAN_POINT('',(-38.,16.,3.));
#1173 = CIRCLE('',#1174,2.);
#1174 = AXIS2_PLACEMENT_3D('',#1175,#1176,#1177);
#1175 = CARTESIAN_POINT('',(-36.,16.,3.));
#1176 = DIRECTION('',(-0.,-0.,-1.));
#1177 = DIRECTION('',(0.,-1.,0.));
#1178 = ORIENTED_EDGE('',*,*,#1179,.T.);
#1179 = EDGE_CURVE('',#1171,#1180,#1182,.T.);
#1180 = VERTEX_POINT('',#1181);
#1181 = CARTESIAN_POINT('',(-38.,-16.,3.));
#1182 = LINE('',#1183,#1184);
#1183 = CARTESIAN_POINT('',(-38.,18.,3.));
#1184 = VECTOR('',#1185,1.);
#1185 = DIRECTION('',(0.,-1.,0.));
#1186 = ORIENTED_EDGE('',*,*,#1187,.F.);
#1187 = EDGE_CURVE('',#1127,#1180,#1188,.T.);
#1188 = CIRCLE('',#1189,2.);
#1189 = AXIS2_PLACEMENT_3D('',#1190,#1191,#1192);
#1190 = CARTESIAN_POINT('',(-36.,-16.,3.));
#1191 = DIRECTION('',(-0.,-0.,-1.));
#1192 = DIRECTION('',(0.,-1.,0.));
#1193 = FACE_BOUND('',#1194,.T.);
#1194 = EDGE_LOOP('',(#1195,#1196,#1197,#1198,#1199,#1200,#1206,#1207,
    #1208,#1209,#1210,#1211));
#1195 = ORIENTED_EDGE('',*,*,#441,.F.);
#1196 = ORIENTED_EDGE('',*,*,#583,.T.);
#1197 = ORIENTED_EDGE('',*,*,#632,.F.);
#1198 = ORIENTED_EDGE('',*,*,#698,.F.);
#1199 = ORIENTED_EDGE('',*,*,#723,.F.);
#1200 = ORIENTED_EDGE('',*,*,#1201,.F.);
#1201 = EDGE_CURVE('',#609,#724,#1202,.T.);
#1202 = LINE('',#1203,#1204);
#1203 = CARTESIAN_POINT('',(35.8,15.8,3.));
#1204 = VECTOR('',#1205,1.);
#1205 = DIRECTION('',(-1.,0.,0.));
#1206 = ORIENTED_EDGE('',*,*,#608,.F.);
#1207 = ORIENTED_EDGE('',*,*,#558,.F.);
#1208 = ORIENTED_EDGE('',*,*,#534,.F.);
#1209 = ORIENTED_EDGE('',*,*,#509,.F.);
#1210 = ORIENTED_EDGE('',*,*,#485,.F.);
#1211 = ORIENTED_EDGE('',*,*,#419,.F.);
#1212 = PLANE('',#1213);
#1213 = AXIS2_PLACEMENT_3D('',#1214,#1215,#1216);
#1214 = CARTESIAN_POINT('',(0.,0.,3.));
#1215 = DIRECTION('',(0.,0.,1.));
#1216 = DIRECTION('',(1.,0.,0.));
#1217 = ADVANCED_FACE('',(#1218),#1229,.T.);
#1218 = FACE_BOUND('',#1219,.T.);
#1219 = EDGE_LOOP('',(#1220,#1221,#1227,#1228));
#1220 = ORIENTED_EDGE('',*,*,#656,.F.);
#1221 = ORIENTED_EDGE('',*,*,#1222,.T.);
#1222 = EDGE_CURVE('',#657,#773,#1223,.T.);
#1223 = LINE('',#1224,#1225);
#1224 = CARTESIAN_POINT('',(7.7,14.3,5.133974596224));
#1225 = VECTOR('',#1226,1.);
#1226 = DIRECTION('',(-1.,-0.,-0.));
#1227 = ORIENTED_EDGE('',*,*,#772,.T.);
#1228 = ORIENTED_EDGE('',*,*,#748,.F.);
#1229 = PLANE('',#1230);
#1230 = AXIS2_PLACEMENT_3D('',#1231,#1232,#1233);
#1231 = CARTESIAN_POINT('',(7.7,14.3,5.133974596224));
#1232 = DIRECTION('',(0.,1.,0.));
#1233 = DIRECTION('',(0.,0.,1.));
#1234 = ADVANCED_FACE('',(#1235),#1246,.T.);
#1235 = FACE_BOUND('',#1236,.T.);
#1236 = EDGE_LOOP('',(#1237,#1243,#1244,#1245));
#1237 = ORIENTED_EDGE('',*,*,#1238,.T.);
#1238 = EDGE_CURVE('',#667,#781,#1239,.T.);
#1239 = LINE('',#1240,#1241);
#1240 = CARTESIAN_POINT('',(7.7,13.201923788647,4.500000000019));
#1241 = VECTOR('',#1242,1.);
#1242 = DIRECTION('',(-1.,-0.,-0.));
#1243 = ORIENTED_EDGE('',*,*,#780,.T.);
#1244 = ORIENTED_EDGE('',*,*,#1222,.F.);
#1245 = ORIENTED_EDGE('',*,*,#666,.F.);
#1246 = PLANE('',#1247);
#1247 = AXIS2_PLACEMENT_3D('',#1248,#1249,#1250);
#1248 = CARTESIAN_POINT('',(7.7,13.201923788647,4.500000000019));
#1249 = DIRECTION('',(0.,0.499999999994,-0.866025403788));
#1250 = DIRECTION('',(0.,0.866025403788,0.499999999994));
#1251 = ADVANCED_FACE('',(#1252),#1258,.F.);
#1252 = FACE_BOUND('',#1253,.F.);
#1253 = EDGE_LOOP('',(#1254,#1255,#1256,#1257));
#1254 = ORIENTED_EDGE('',*,*,#1238,.T.);
#1255 = ORIENTED_EDGE('',*,*,#788,.T.);
#1256 = ORIENTED_EDGE('',*,*,#1201,.F.);
#1257 = ORIENTED_EDGE('',*,*,#674,.F.);
#1258 = PLANE('',#1259);
#1259 = AXIS2_PLACEMENT_3D('',#1260,#1261,#1262);
#1260 = CARTESIAN_POINT('',(7.7,13.201923788647,4.500000000019));
#1261 = DIRECTION('',(0.,-0.500000000005,-0.866025403782));
#1262 = DIRECTION('',(0.,0.866025403782,-0.500000000005));
#1263 = ADVANCED_FACE('',(#1264),#1320,.T.);
#1264 = FACE_BOUND('',#1265,.T.);
#1265 = EDGE_LOOP('',(#1266,#1267,#1268,#1269,#1270,#1271,#1279,#1287,
    #1293,#1294,#1295,#1296,#1297,#1298,#1306,#1314));
#1266 = ORIENTED_EDGE('',*,*,#998,.T.);
#1267 = ORIENTED_EDGE('',*,*,#948,.F.);
#1268 = ORIENTED_EDGE('',*,*,#893,.T.);
#1269 = ORIENTED_EDGE('',*,*,#837,.F.);
#1270 = ORIENTED_EDGE('',*,*,#806,.T.);
#1271 = ORIENTED_EDGE('',*,*,#1272,.T.);
#1272 = EDGE_CURVE('',#809,#1273,#1275,.T.);
#1273 = VERTEX_POINT('',#1274);
#1274 = CARTESIAN_POINT('',(-10.,-10.80000000003,3.));
#1275 = LINE('',#1276,#1277);
#1276 = CARTESIAN_POINT('',(-10.,-13.80000000003,3.));
#1277 = VECTOR('',#1278,1.);
#1278 = DIRECTION('',(0.,1.,0.));
#1279 = ORIENTED_EDGE('',*,*,#1280,.T.);
#1280 = EDGE_CURVE('',#1273,#1281,#1283,.T.);
#1281 = VERTEX_POINT('',#1282);
#1282 = CARTESIAN_POINT('',(10.,-10.80000000003,3.));
#1283 = LINE('',#1284,#1285);
#1284 = CARTESIAN_POINT('',(-10.,-10.80000000003,3.));
#1285 = VECTOR('',#1286,1.);
#1286 = DIRECTION('',(1.,0.,0.));
#1287 = ORIENTED_EDGE('',*,*,#1288,.F.);
#1288 = EDGE_CURVE('',#918,#1281,#1289,.T.);
#1289 = LINE('',#1290,#1291);
#1290 = CARTESIAN_POINT('',(10.,-13.80000000003,3.));
#1291 = VECTOR('',#1292,1.);
#1292 = DIRECTION('',(0.,1.,0.));
#1293 = ORIENTED_EDGE('',*,*,#917,.T.);
#1294 = ORIENTED_EDGE('',*,*,#973,.T.);
#1295 = ORIENTED_EDGE('',*,*,#1022,.T.);
#1296 = ORIENTED_EDGE('',*,*,#1077,.T.);
#1297 = ORIENTED_EDGE('',*,*,#1102,.T.);
#1298 = ORIENTED_EDGE('',*,*,#1299,.F.);
#1299 = EDGE_CURVE('',#1300,#1103,#1302,.T.);
#1300 = VERTEX_POINT('',#1301);
#1301 = CARTESIAN_POINT('',(10.,10.8,3.));
#1302 = LINE('',#1303,#1304);
#1303 = CARTESIAN_POINT('',(10.,10.8,3.));
#1304 = VECTOR('',#1305,1.);
#1305 = DIRECTION('',(0.,1.,0.));
#1306 = ORIENTED_EDGE('',*,*,#1307,.F.);
#1307 = EDGE_CURVE('',#1308,#1300,#1310,.T.);
#1308 = VERTEX_POINT('',#1309);
#1309 = CARTESIAN_POINT('',(-10.,10.8,3.));
#1310 = LINE('',#1311,#1312);
#1311 = CARTESIAN_POINT('',(-10.,10.8,3.));
#1312 = VECTOR('',#1313,1.);
#1313 = DIRECTION('',(1.,0.,0.));
#1314 = ORIENTED_EDGE('',*,*,#1315,.T.);
#1315 = EDGE_CURVE('',#1308,#999,#1316,.T.);
#1316 = LINE('',#1317,#1318);
#1317 = CARTESIAN_POINT('',(-10.,10.8,3.));
#1318 = VECTOR('',#1319,1.);
#1319 = DIRECTION('',(0.,1.,0.));
#1320 = PLANE('',#1321);
#1321 = AXIS2_PLACEMENT_3D('',#1322,#1323,#1324);
#1322 = CARTESIAN_POINT('',(0.,0.,3.));
#1323 = DIRECTION('',(0.,0.,1.));
#1324 = DIRECTION('',(1.,0.,0.));
#1325 = ADVANCED_FACE('',(#1326),#1337,.F.);
#1326 = FACE_BOUND('',#1327,.F.);
#1327 = EDGE_LOOP('',(#1328,#1329,#1330,#1336));
#1328 = ORIENTED_EDGE('',*,*,#823,.T.);
#1329 = ORIENTED_EDGE('',*,*,#1272,.T.);
#1330 = ORIENTED_EDGE('',*,*,#1331,.T.);
#1331 = EDGE_CURVE('',#1273,#872,#1332,.T.);
#1332 = LINE('',#1333,#1334);
#1333 = CARTESIAN_POINT('',(-10.,-10.80000000003,3.));
#1334 = VECTOR('',#1335,1.);
#1335 = DIRECTION('',(0.,0.,1.));
#1336 = ORIENTED_EDGE('',*,*,#879,.F.);
#1337 = PLANE('',#1338);
#1338 = AXIS2_PLACEMENT_3D('',#1339,#1340,#1341);
#1339 = CARTESIAN_POINT('',(-10.,-1.565710524195E-11,4.5));
#1340 = DIRECTION('',(1.,0.,0.));
#1341 = DIRECTION('',(0.,0.,1.));
#1342 = ADVANCED_FACE('',(#1343),#1354,.F.);
#1343 = FACE_BOUND('',#1344,.F.);
#1344 = EDGE_LOOP('',(#1345,#1346,#1352,#1353));
#1345 = ORIENTED_EDGE('',*,*,#1280,.T.);
#1346 = ORIENTED_EDGE('',*,*,#1347,.T.);
#1347 = EDGE_CURVE('',#1281,#864,#1348,.T.);
#1348 = LINE('',#1349,#1350);
#1349 = CARTESIAN_POINT('',(10.,-10.80000000003,3.));
#1350 = VECTOR('',#1351,1.);
#1351 = DIRECTION('',(0.,0.,1.));
#1352 = ORIENTED_EDGE('',*,*,#871,.F.);
#1353 = ORIENTED_EDGE('',*,*,#1331,.F.);
#1354 = PLANE('',#1355);
#1355 = AXIS2_PLACEMENT_3D('',#1356,#1357,#1358);
#1356 = CARTESIAN_POINT('',(-10.,-10.80000000003,3.));
#1357 = DIRECTION('',(0.,-1.,0.));
#1358 = DIRECTION('',(0.,0.,1.));
#1359 = ADVANCED_FACE('',(#1360),#1366,.T.);
#1360 = FACE_BOUND('',#1361,.T.);
#1361 = EDGE_LOOP('',(#1362,#1363,#1364,#1365));
#1362 = ORIENTED_EDGE('',*,*,#927,.T.);
#1363 = ORIENTED_EDGE('',*,*,#1288,.T.);
#1364 = ORIENTED_EDGE('',*,*,#1347,.T.);
#1365 = ORIENTED_EDGE('',*,*,#863,.F.);
#1366 = PLANE('',#1367);
#1367 = AXIS2_PLACEMENT_3D('',#1368,#1369,#1370);
#1368 = CARTESIAN_POINT('',(10.,-1.565710524195E-11,4.5));
#1369 = DIRECTION('',(1.,0.,0.));
#1370 = DIRECTION('',(0.,0.,1.));
#1371 = ADVANCED_FACE('',(#1372),#1383,.F.);
#1372 = FACE_BOUND('',#1373,.F.);
#1373 = EDGE_LOOP('',(#1374,#1375,#1376,#1382));
#1374 = ORIENTED_EDGE('',*,*,#1006,.T.);
#1375 = ORIENTED_EDGE('',*,*,#1063,.T.);
#1376 = ORIENTED_EDGE('',*,*,#1377,.T.);
#1377 = EDGE_CURVE('',#1056,#1308,#1378,.T.);
#1378 = LINE('',#1379,#1380);
#1379 = CARTESIAN_POINT('',(-10.,10.8,6.));
#1380 = VECTOR('',#1381,1.);
#1381 = DIRECTION('',(0.,0.,-1.));
#1382 = ORIENTED_EDGE('',*,*,#1315,.T.);
#1383 = PLANE('',#1384);
#1384 = AXIS2_PLACEMENT_3D('',#1385,#1386,#1387);
#1385 = CARTESIAN_POINT('',(-10.,-1.565710524195E-11,4.5));
#1386 = DIRECTION('',(1.,0.,0.));
#1387 = DIRECTION('',(0.,0.,1.));
#1388 = ADVANCED_FACE('',(#1389),#1400,.F.);
#1389 = FACE_BOUND('',#1390,.F.);
#1390 = EDGE_LOOP('',(#1391,#1392,#1398,#1399));
#1391 = ORIENTED_EDGE('',*,*,#1055,.T.);
#1392 = ORIENTED_EDGE('',*,*,#1393,.T.);
#1393 = EDGE_CURVE('',#1048,#1300,#1394,.T.);
#1394 = LINE('',#1395,#1396);
#1395 = CARTESIAN_POINT('',(10.,10.8,6.));
#1396 = VECTOR('',#1397,1.);
#1397 = DIRECTION('',(0.,0.,-1.));
#1398 = ORIENTED_EDGE('',*,*,#1307,.F.);
#1399 = ORIENTED_EDGE('',*,*,#1377,.F.);
#1400 = PLANE('',#1401);
#1401 = AXIS2_PLACEMENT_3D('',#1402,#1403,#1404);
#1402 = CARTESIAN_POINT('',(-10.,10.8,6.));
#1403 = DIRECTION('',(0.,1.,0.));
#1404 = DIRECTION('',(0.,0.,-1.));
#1405 = ADVANCED_FACE('',(#1406),#1412,.T.);
#1406 = FACE_BOUND('',#1407,.T.);
#1407 = EDGE_LOOP('',(#1408,#1409,#1410,#1411));
#1408 = ORIENTED_EDGE('',*,*,#1112,.T.);
#1409 = ORIENTED_EDGE('',*,*,#1047,.T.);
#1410 = ORIENTED_EDGE('',*,*,#1393,.T.);
#1411 = ORIENTED_EDGE('',*,*,#1299,.T.);
#1412 = PLANE('',#1413);
#1413 = AXIS2_PLACEMENT_3D('',#1414,#1415,#1416);
#1414 = CARTESIAN_POINT('',(10.,-1.565710524195E-11,4.5));
#1415 = DIRECTION('',(1.,0.,0.));
#1416 = DIRECTION('',(0.,0.,1.));
#1417 = ADVANCED_FACE('',(#1418),#1443,.F.);
#1418 = FACE_BOUND('',#1419,.F.);
#1419 = EDGE_LOOP('',(#1420,#1421,#1429,#1437));
#1420 = ORIENTED_EDGE('',*,*,#1126,.T.);
#1421 = ORIENTED_EDGE('',*,*,#1422,.F.);
#1422 = EDGE_CURVE('',#1423,#1129,#1425,.T.);
#1423 = VERTEX_POINT('',#1424);
#1424 = CARTESIAN_POINT('',(36.,-18.,2.));
#1425 = LINE('',#1426,#1427);
#1426 = CARTESIAN_POINT('',(36.,-18.,0.));
#1427 = VECTOR('',#1428,1.);
#1428 = DIRECTION('',(0.,0.,1.));
#1429 = ORIENTED_EDGE('',*,*,#1430,.F.);
#1430 = EDGE_CURVE('',#1431,#1423,#1433,.T.);
#1431 = VERTEX_POINT('',#1432);
#1432 = CARTESIAN_POINT('',(-36.,-18.,2.));
#1433 = LINE('',#1434,#1435);
#1434 = CARTESIAN_POINT('',(-38.,-18.,2.));
#1435 = VECTOR('',#1436,1.);
#1436 = DIRECTION('',(1.,0.,0.));
#1437 = ORIENTED_EDGE('',*,*,#1438,.T.);
#1438 = EDGE_CURVE('',#1431,#1127,#1439,.T.);
#1439 = LINE('',#1440,#1441);
#1440 = CARTESIAN_POINT('',(-36.,-18.,0.));
#1441 = VECTOR('',#1442,1.);
#1442 = DIRECTION('',(0.,0.,1.));
#1443 = PLANE('',#1444);
#1444 = AXIS2_PLACEMENT_3D('',#1445,#1446,#1447);
#1445 = CARTESIAN_POINT('',(-38.,-18.,0.));
#1446 = DIRECTION('',(0.,1.,0.));
#1447 = DIRECTION('',(1.,0.,0.));
#1448 = ADVANCED_FACE('',(#1449),#1468,.T.);
#1449 = FACE_BOUND('',#1450,.F.);
#1450 = EDGE_LOOP('',(#1451,#1460,#1466,#1467));
#1451 = ORIENTED_EDGE('',*,*,#1452,.F.);
#1452 = EDGE_CURVE('',#1453,#1431,#1455,.T.);
#1453 = VERTEX_POINT('',#1454);
#1454 = CARTESIAN_POINT('',(-38.,-16.,2.));
#1455 = CIRCLE('',#1456,2.);
#1456 = AXIS2_PLACEMENT_3D('',#1457,#1458,#1459);
#1457 = CARTESIAN_POINT('',(-36.,-16.,2.));
#1458 = DIRECTION('',(0.,-6.123233995737E-17,1.));
#1459 = DIRECTION('',(0.,-1.,-6.123233995737E-17));
#1460 = ORIENTED_EDGE('',*,*,#1461,.T.);
#1461 = EDGE_CURVE('',#1453,#1180,#1462,.T.);
#1462 = LINE('',#1463,#1464);
#1463 = CARTESIAN_POINT('',(-38.,-16.,0.));
#1464 = VECTOR('',#1465,1.);
#1465 = DIRECTION('',(0.,0.,1.));
#1466 = ORIENTED_EDGE('',*,*,#1187,.F.);
#1467 = ORIENTED_EDGE('',*,*,#1438,.F.);
#1468 = CYLINDRICAL_SURFACE('',#1469,2.);
#1469 = AXIS2_PLACEMENT_3D('',#1470,#1471,#1472);
#1470 = CARTESIAN_POINT('',(-36.,-16.,0.));
#1471 = DIRECTION('',(0.,0.,1.));
#1472 = DIRECTION('',(0.,-1.,0.));
#1473 = ADVANCED_FACE('',(#1474),#1493,.T.);
#1474 = FACE_BOUND('',#1475,.T.);
#1475 = EDGE_LOOP('',(#1476,#1477,#1486,#1492));
#1476 = ORIENTED_EDGE('',*,*,#1422,.F.);
#1477 = ORIENTED_EDGE('',*,*,#1478,.T.);
#1478 = EDGE_CURVE('',#1423,#1479,#1481,.T.);
#1479 = VERTEX_POINT('',#1480);
#1480 = CARTESIAN_POINT('',(38.,-16.,2.));
#1481 = CIRCLE('',#1482,2.);
#1482 = AXIS2_PLACEMENT_3D('',#1483,#1484,#1485);
#1483 = CARTESIAN_POINT('',(36.,-16.,2.));
#1484 = DIRECTION('',(-0.,0.,1.));
#1485 = DIRECTION('',(0.,-1.,0.));
#1486 = ORIENTED_EDGE('',*,*,#1487,.T.);
#1487 = EDGE_CURVE('',#1479,#1137,#1488,.T.);
#1488 = LINE('',#1489,#1490);
#1489 = CARTESIAN_POINT('',(38.,-16.,0.));
#1490 = VECTOR('',#1491,1.);
#1491 = DIRECTION('',(0.,0.,1.));
#1492 = ORIENTED_EDGE('',*,*,#1136,.F.);
#1493 = CYLINDRICAL_SURFACE('',#1494,2.);
#1494 = AXIS2_PLACEMENT_3D('',#1495,#1496,#1497);
#1495 = CARTESIAN_POINT('',(36.,-16.,0.));
#1496 = DIRECTION('',(0.,0.,1.));
#1497 = DIRECTION('',(0.,-1.,0.));
#1498 = ADVANCED_FACE('',(#1499),#1517,.F.);
#1499 = FACE_BOUND('',#1500,.F.);
#1500 = EDGE_LOOP('',(#1501,#1502,#1503,#1511));
#1501 = ORIENTED_EDGE('',*,*,#1179,.T.);
#1502 = ORIENTED_EDGE('',*,*,#1461,.F.);
#1503 = ORIENTED_EDGE('',*,*,#1504,.F.);
#1504 = EDGE_CURVE('',#1505,#1453,#1507,.T.);
#1505 = VERTEX_POINT('',#1506);
#1506 = CARTESIAN_POINT('',(-38.,16.,2.));
#1507 = LINE('',#1508,#1509);
#1508 = CARTESIAN_POINT('',(-38.,18.,2.));
#1509 = VECTOR('',#1510,1.);
#1510 = DIRECTION('',(0.,-1.,0.));
#1511 = ORIENTED_EDGE('',*,*,#1512,.T.);
#1512 = EDGE_CURVE('',#1505,#1171,#1513,.T.);
#1513 = LINE('',#1514,#1515);
#1514 = CARTESIAN_POINT('',(-38.,16.,0.));
#1515 = VECTOR('',#1516,1.);
#1516 = DIRECTION('',(0.,0.,1.));
#1517 = PLANE('',#1518);
#1518 = AXIS2_PLACEMENT_3D('',#1519,#1520,#1521);
#1519 = CARTESIAN_POINT('',(-38.,18.,0.));
#1520 = DIRECTION('',(1.,0.,0.));
#1521 = DIRECTION('',(0.,-1.,0.));
#1522 = ADVANCED_FACE('',(#1523),#1541,.F.);
#1523 = FACE_BOUND('',#1524,.F.);
#1524 = EDGE_LOOP('',(#1525,#1526,#1534,#1540));
#1525 = ORIENTED_EDGE('',*,*,#1145,.T.);
#1526 = ORIENTED_EDGE('',*,*,#1527,.F.);
#1527 = EDGE_CURVE('',#1528,#1146,#1530,.T.);
#1528 = VERTEX_POINT('',#1529);
#1529 = CARTESIAN_POINT('',(38.,16.,2.));
#1530 = LINE('',#1531,#1532);
#1531 = CARTESIAN_POINT('',(38.,16.,0.));
#1532 = VECTOR('',#1533,1.);
#1533 = DIRECTION('',(0.,0.,1.));
#1534 = ORIENTED_EDGE('',*,*,#1535,.F.);
#1535 = EDGE_CURVE('',#1479,#1528,#1536,.T.);
#1536 = LINE('',#1537,#1538);
#1537 = CARTESIAN_POINT('',(38.,-18.,2.));
#1538 = VECTOR('',#1539,1.);
#1539 = DIRECTION('',(0.,1.,0.));
#1540 = ORIENTED_EDGE('',*,*,#1487,.T.);
#1541 = PLANE('',#1542);
#1542 = AXIS2_PLACEMENT_3D('',#1543,#1544,#1545);
#1543 = CARTESIAN_POINT('',(38.,-18.,0.));
#1544 = DIRECTION('',(-1.,0.,0.));
#1545 = DIRECTION('',(0.,1.,0.));
#1546 = ADVANCED_FACE('',(#1547),#1566,.T.);
#1547 = FACE_BOUND('',#1548,.F.);
#1548 = EDGE_LOOP('',(#1549,#1558,#1564,#1565));
#1549 = ORIENTED_EDGE('',*,*,#1550,.T.);
#1550 = EDGE_CURVE('',#1505,#1551,#1553,.T.);
#1551 = VERTEX_POINT('',#1552);
#1552 = CARTESIAN_POINT('',(-36.,18.,2.));
#1553 = CIRCLE('',#1554,2.);
#1554 = AXIS2_PLACEMENT_3D('',#1555,#1556,#1557);
#1555 = CARTESIAN_POINT('',(-36.,16.,2.));
#1556 = DIRECTION('',(0.,-1.110223024625E-16,-1.));
#1557 = DIRECTION('',(0.,1.,-1.110223024625E-16));
#1558 = ORIENTED_EDGE('',*,*,#1559,.T.);
#1559 = EDGE_CURVE('',#1551,#1163,#1560,.T.);
#1560 = LINE('',#1561,#1562);
#1561 = CARTESIAN_POINT('',(-36.,18.,0.));
#1562 = VECTOR('',#1563,1.);
#1563 = DIRECTION('',(0.,0.,1.));
#1564 = ORIENTED_EDGE('',*,*,#1170,.F.);
#1565 = ORIENTED_EDGE('',*,*,#1512,.F.);
#1566 = CYLINDRICAL_SURFACE('',#1567,2.);
#1567 = AXIS2_PLACEMENT_3D('',#1568,#1569,#1570);
#1568 = CARTESIAN_POINT('',(-36.,16.,0.));
#1569 = DIRECTION('',(0.,0.,1.));
#1570 = DIRECTION('',(-1.,0.,0.));
#1571 = ADVANCED_FACE('',(#1572),#1591,.T.);
#1572 = FACE_BOUND('',#1573,.T.);
#1573 = EDGE_LOOP('',(#1574,#1583,#1589,#1590));
#1574 = ORIENTED_EDGE('',*,*,#1575,.F.);
#1575 = EDGE_CURVE('',#1576,#1528,#1578,.T.);
#1576 = VERTEX_POINT('',#1577);
#1577 = CARTESIAN_POINT('',(36.,18.,2.));
#1578 = CIRCLE('',#1579,2.);
#1579 = AXIS2_PLACEMENT_3D('',#1580,#1581,#1582);
#1580 = CARTESIAN_POINT('',(36.,16.,2.));
#1581 = DIRECTION('',(0.,0.,-1.));
#1582 = DIRECTION('',(1.,0.,0.));
#1583 = ORIENTED_EDGE('',*,*,#1584,.T.);
#1584 = EDGE_CURVE('',#1576,#1154,#1585,.T.);
#1585 = LINE('',#1586,#1587);
#1586 = CARTESIAN_POINT('',(36.,18.,0.));
#1587 = VECTOR('',#1588,1.);
#1588 = DIRECTION('',(0.,0.,1.));
#1589 = ORIENTED_EDGE('',*,*,#1153,.F.);
#1590 = ORIENTED_EDGE('',*,*,#1527,.F.);
#1591 = CYLINDRICAL_SURFACE('',#1592,2.);
#1592 = AXIS2_PLACEMENT_3D('',#1593,#1594,#1595);
#1593 = CARTESIAN_POINT('',(36.,16.,0.));
#1594 = DIRECTION('',(0.,0.,1.));
#1595 = DIRECTION('',(1.,0.,0.));
#1596 = ADVANCED_FACE('',(#1597),#1608,.F.);
#1597 = FACE_BOUND('',#1598,.F.);
#1598 = EDGE_LOOP('',(#1599,#1600,#1601,#1607));
#1599 = ORIENTED_EDGE('',*,*,#1162,.T.);
#1600 = ORIENTED_EDGE('',*,*,#1559,.F.);
#1601 = ORIENTED_EDGE('',*,*,#1602,.F.);
#1602 = EDGE_CURVE('',#1576,#1551,#1603,.T.);
#1603 = LINE('',#1604,#1605);
#1604 = CARTESIAN_POINT('',(38.,18.,2.));
#1605 = VECTOR('',#1606,1.);
#1606 = DIRECTION('',(-1.,0.,0.));
#1607 = ORIENTED_EDGE('',*,*,#1584,.T.);
#1608 = PLANE('',#1609);
#1609 = AXIS2_PLACEMENT_3D('',#1610,#1611,#1612);
#1610 = CARTESIAN_POINT('',(38.,18.,0.));
#1611 = DIRECTION('',(0.,-1.,0.));
#1612 = DIRECTION('',(-1.,0.,0.));
#1613 = ADVANCED_FACE('',(#1614),#1641,.T.);
#1614 = FACE_BOUND('',#1615,.T.);
#1615 = EDGE_LOOP('',(#1616,#1617,#1626,#1634));
#1616 = ORIENTED_EDGE('',*,*,#1430,.F.);
#1617 = ORIENTED_EDGE('',*,*,#1618,.F.);
#1618 = EDGE_CURVE('',#1619,#1431,#1621,.T.);
#1619 = VERTEX_POINT('',#1620);
#1620 = CARTESIAN_POINT('',(-36.,-16.,-4.440892098501E-16));
#1621 = CIRCLE('',#1622,2.);
#1622 = AXIS2_PLACEMENT_3D('',#1623,#1624,#1625);
#1623 = CARTESIAN_POINT('',(-36.,-16.,2.));
#1624 = DIRECTION('',(-1.,-0.,-0.));
#1625 = DIRECTION('',(0.,0.,-1.));
#1626 = ORIENTED_EDGE('',*,*,#1627,.T.);
#1627 = EDGE_CURVE('',#1619,#1628,#1630,.T.);
#1628 = VERTEX_POINT('',#1629);
#1629 = CARTESIAN_POINT('',(36.,-16.,0.));
#1630 = LINE('',#1631,#1632);
#1631 = CARTESIAN_POINT('',(-38.,-16.,-4.440892098501E-16));
#1632 = VECTOR('',#1633,1.);
#1633 = DIRECTION('',(1.,0.,0.));
#1634 = ORIENTED_EDGE('',*,*,#1635,.T.);
#1635 = EDGE_CURVE('',#1628,#1423,#1636,.T.);
#1636 = CIRCLE('',#1637,2.);
#1637 = AXIS2_PLACEMENT_3D('',#1638,#1639,#1640);
#1638 = CARTESIAN_POINT('',(36.,-16.,2.));
#1639 = DIRECTION('',(-1.,0.,0.));
#1640 = DIRECTION('',(0.,-1.,0.));
#1641 = CYLINDRICAL_SURFACE('',#1642,2.);
#1642 = AXIS2_PLACEMENT_3D('',#1643,#1644,#1645);
#1643 = CARTESIAN_POINT('',(-38.,-16.,2.));
#1644 = DIRECTION('',(1.,0.,0.));
#1645 = DIRECTION('',(0.,-1.,0.));
#1646 = ADVANCED_FACE('',(#1647),#1658,.T.);
#1647 = FACE_BOUND('',#1648,.F.);
#1648 = EDGE_LOOP('',(#1649,#1656,#1657));
#1649 = ORIENTED_EDGE('',*,*,#1650,.F.);
#1650 = EDGE_CURVE('',#1453,#1619,#1651,.T.);
#1651 = CIRCLE('',#1652,2.);
#1652 = AXIS2_PLACEMENT_3D('',#1653,#1654,#1655);
#1653 = CARTESIAN_POINT('',(-36.,-16.,2.));
#1654 = DIRECTION('',(0.,-1.,0.));
#1655 = DIRECTION('',(0.,0.,-1.));
#1656 = ORIENTED_EDGE('',*,*,#1452,.T.);
#1657 = ORIENTED_EDGE('',*,*,#1618,.F.);
#1658 = SPHERICAL_SURFACE('',#1659,2.);
#1659 = AXIS2_PLACEMENT_3D('',#1660,#1661,#1662);
#1660 = CARTESIAN_POINT('',(-36.,-16.,2.));
#1661 = DIRECTION('',(1.,0.,0.));
#1662 = DIRECTION('',(0.,0.,-1.));
#1663 = ADVANCED_FACE('',(#1664),#1675,.T.);
#1664 = FACE_BOUND('',#1665,.T.);
#1665 = EDGE_LOOP('',(#1666,#1667,#1674));
#1666 = ORIENTED_EDGE('',*,*,#1635,.F.);
#1667 = ORIENTED_EDGE('',*,*,#1668,.T.);
#1668 = EDGE_CURVE('',#1628,#1479,#1669,.T.);
#1669 = CIRCLE('',#1670,2.);
#1670 = AXIS2_PLACEMENT_3D('',#1671,#1672,#1673);
#1671 = CARTESIAN_POINT('',(36.,-16.,2.));
#1672 = DIRECTION('',(-6.123233995737E-17,-1.,0.));
#1673 = DIRECTION('',(1.,-6.123233995737E-17,0.));
#1674 = ORIENTED_EDGE('',*,*,#1478,.F.);
#1675 = SPHERICAL_SURFACE('',#1676,2.);
#1676 = AXIS2_PLACEMENT_3D('',#1677,#1678,#1679);
#1677 = CARTESIAN_POINT('',(36.,-16.,2.));
#1678 = DIRECTION('',(0.,0.,1.));
#1679 = DIRECTION('',(0.,-1.,0.));
#1680 = ADVANCED_FACE('',(#1681),#1700,.T.);
#1681 = FACE_BOUND('',#1682,.T.);
#1682 = EDGE_LOOP('',(#1683,#1692,#1698,#1699));
#1683 = ORIENTED_EDGE('',*,*,#1684,.T.);
#1684 = EDGE_CURVE('',#1505,#1685,#1687,.T.);
#1685 = VERTEX_POINT('',#1686);
#1686 = CARTESIAN_POINT('',(-36.,16.,-4.440892098501E-16));
#1687 = CIRCLE('',#1688,2.);
#1688 = AXIS2_PLACEMENT_3D('',#1689,#1690,#1691);
#1689 = CARTESIAN_POINT('',(-36.,16.,2.));
#1690 = DIRECTION('',(0.,-1.,4.978996250515E-17));
#1691 = DIRECTION('',(0.,-4.978996250515E-17,-1.));
#1692 = ORIENTED_EDGE('',*,*,#1693,.T.);
#1693 = EDGE_CURVE('',#1685,#1619,#1694,.T.);
#1694 = LINE('',#1695,#1696);
#1695 = CARTESIAN_POINT('',(-36.,18.,-4.440892098501E-16));
#1696 = VECTOR('',#1697,1.);
#1697 = DIRECTION('',(0.,-1.,0.));
#1698 = ORIENTED_EDGE('',*,*,#1650,.F.);
#1699 = ORIENTED_EDGE('',*,*,#1504,.F.);
#1700 = CYLINDRICAL_SURFACE('',#1701,2.);
#1701 = AXIS2_PLACEMENT_3D('',#1702,#1703,#1704);
#1702 = CARTESIAN_POINT('',(-36.,18.,2.));
#1703 = DIRECTION('',(0.,-1.,0.));
#1704 = DIRECTION('',(-1.,0.,0.));
#1705 = ADVANCED_FACE('',(#1706),#1725,.T.);
#1706 = FACE_BOUND('',#1707,.T.);
#1707 = EDGE_LOOP('',(#1708,#1709,#1717,#1724));
#1708 = ORIENTED_EDGE('',*,*,#1668,.F.);
#1709 = ORIENTED_EDGE('',*,*,#1710,.T.);
#1710 = EDGE_CURVE('',#1628,#1711,#1713,.T.);
#1711 = VERTEX_POINT('',#1712);
#1712 = CARTESIAN_POINT('',(36.,16.,-4.440892098501E-16));
#1713 = LINE('',#1714,#1715);
#1714 = CARTESIAN_POINT('',(36.,-18.,-4.440892098501E-16));
#1715 = VECTOR('',#1716,1.);
#1716 = DIRECTION('',(0.,1.,0.));
#1717 = ORIENTED_EDGE('',*,*,#1718,.F.);
#1718 = EDGE_CURVE('',#1528,#1711,#1719,.T.);
#1719 = CIRCLE('',#1720,2.);
#1720 = AXIS2_PLACEMENT_3D('',#1721,#1722,#1723);
#1721 = CARTESIAN_POINT('',(36.,16.,2.));
#1722 = DIRECTION('',(-0.,1.,0.));
#1723 = DIRECTION('',(1.,0.,0.));
#1724 = ORIENTED_EDGE('',*,*,#1535,.F.);
#1725 = CYLINDRICAL_SURFACE('',#1726,2.);
#1726 = AXIS2_PLACEMENT_3D('',#1727,#1728,#1729);
#1727 = CARTESIAN_POINT('',(36.,-18.,2.));
#1728 = DIRECTION('',(0.,1.,0.));
#1729 = DIRECTION('',(1.,0.,0.));
#1730 = ADVANCED_FACE('',(#1731),#1742,.T.);
#1731 = FACE_BOUND('',#1732,.F.);
#1732 = EDGE_LOOP('',(#1733,#1734,#1735));
#1733 = ORIENTED_EDGE('',*,*,#1550,.F.);
#1734 = ORIENTED_EDGE('',*,*,#1684,.T.);
#1735 = ORIENTED_EDGE('',*,*,#1736,.F.);
#1736 = EDGE_CURVE('',#1551,#1685,#1737,.T.);
#1737 = CIRCLE('',#1738,2.);
#1738 = AXIS2_PLACEMENT_3D('',#1739,#1740,#1741);
#1739 = CARTESIAN_POINT('',(-36.,16.,2.));
#1740 = DIRECTION('',(-1.,0.,-0.));
#1741 = DIRECTION('',(0.,1.,-1.110223024625E-16));
#1742 = SPHERICAL_SURFACE('',#1743,2.);
#1743 = AXIS2_PLACEMENT_3D('',#1744,#1745,#1746);
#1744 = CARTESIAN_POINT('',(-36.,16.,2.));
#1745 = DIRECTION('',(1.,0.,0.));
#1746 = DIRECTION('',(0.,1.,-1.110223024625E-16));
#1747 = ADVANCED_FACE('',(#1748),#1759,.T.);
#1748 = FACE_BOUND('',#1749,.F.);
#1749 = EDGE_LOOP('',(#1750,#1751,#1758));
#1750 = ORIENTED_EDGE('',*,*,#1575,.F.);
#1751 = ORIENTED_EDGE('',*,*,#1752,.T.);
#1752 = EDGE_CURVE('',#1576,#1711,#1753,.T.);
#1753 = CIRCLE('',#1754,2.);
#1754 = AXIS2_PLACEMENT_3D('',#1755,#1756,#1757);
#1755 = CARTESIAN_POINT('',(36.,16.,2.));
#1756 = DIRECTION('',(-1.,-0.,-6.123233995737E-17));
#1757 = DIRECTION('',(6.123233995737E-17,0.,-1.));
#1758 = ORIENTED_EDGE('',*,*,#1718,.F.);
#1759 = SPHERICAL_SURFACE('',#1760,2.);
#1760 = AXIS2_PLACEMENT_3D('',#1761,#1762,#1763);
#1761 = CARTESIAN_POINT('',(36.,16.,2.));
#1762 = DIRECTION('',(0.,-1.,0.));
#1763 = DIRECTION('',(1.,0.,0.));
#1764 = ADVANCED_FACE('',(#1765),#1776,.T.);
#1765 = FACE_BOUND('',#1766,.F.);
#1766 = EDGE_LOOP('',(#1767,#1768,#1769,#1770));
#1767 = ORIENTED_EDGE('',*,*,#1752,.F.);
#1768 = ORIENTED_EDGE('',*,*,#1602,.T.);
#1769 = ORIENTED_EDGE('',*,*,#1736,.T.);
#1770 = ORIENTED_EDGE('',*,*,#1771,.F.);
#1771 = EDGE_CURVE('',#1711,#1685,#1772,.T.);
#1772 = LINE('',#1773,#1774);
#1773 = CARTESIAN_POINT('',(38.,16.,-4.440892098501E-16));
#1774 = VECTOR('',#1775,1.);
#1775 = DIRECTION('',(-1.,0.,0.));
#1776 = CYLINDRICAL_SURFACE('',#1777,2.);
#1777 = AXIS2_PLACEMENT_3D('',#1778,#1779,#1780);
#1778 = CARTESIAN_POINT('',(38.,16.,2.));
#1779 = DIRECTION('',(-1.,0.,0.));
#1780 = DIRECTION('',(0.,0.,-1.));
#1781 = ADVANCED_FACE('',(#1782),#1788,.F.);
#1782 = FACE_BOUND('',#1783,.F.);
#1783 = EDGE_LOOP('',(#1784,#1785,#1786,#1787));
#1784 = ORIENTED_EDGE('',*,*,#1627,.T.);
#1785 = ORIENTED_EDGE('',*,*,#1710,.T.);
#1786 = ORIENTED_EDGE('',*,*,#1771,.T.);
#1787 = ORIENTED_EDGE('',*,*,#1693,.T.);
#1788 = PLANE('',#1789);
#1789 = AXIS2_PLACEMENT_3D('',#1790,#1791,#1792);
#1790 = CARTESIAN_POINT('',(0.,0.,0.));
#1791 = DIRECTION('',(0.,0.,1.));
#1792 = DIRECTION('',(1.,0.,0.));
#1793 = ( GEOMETRIC_REPRESENTATION_CONTEXT(3) 
GLOBAL_UNCERTAINTY_ASSIGNED_CONTEXT((#1797)) 
GLOBAL_UNIT_ASSIGNED_CONTEXT((#1794,#1795,#1796)) REPRESENTATION_CONTEXT
('Context #1','3D Context with UNIT and UNCERTAINTY') );
#1794 = ( LENGTH_UNIT() NAMED_UNIT(*) SI_UNIT(.MILLI.,.METRE.) );
#1795 = ( NAMED_UNIT(*) PLANE_ANGLE_UNIT() SI_UNIT($,.RADIAN.) );
#1796 = ( NAMED_UNIT(*) SI_UNIT($,.STERADIAN.) SOLID_ANGLE_UNIT() );
#1797 = UNCERTAINTY_MEASURE_WITH_UNIT(LENGTH_MEASURE(5.E-06),#1794,
  'distance_accuracy_value','confusion accuracy');
#1798 = PRODUCT_RELATED_PRODUCT_CATEGORY('part',$,(#7));
#1799 = MECHANICAL_DESIGN_GEOMETRIC_PRESENTATION_REPRESENTATION('',(
    #1800),#1793);
#1800 = STYLED_ITEM('color',(#1801),#15);
#1801 = PRESENTATION_STYLE_ASSIGNMENT((#1802,#1808));
#1802 = SURFACE_STYLE_USAGE(.BOTH.,#1803);
#1803 = SURFACE_SIDE_STYLE('',(#1804));
#1804 = SURFACE_STYLE_FILL_AREA(#1805);
#1805 = FILL_AREA_STYLE('',(#1806));
#1806 = FILL_AREA_STYLE_COLOUR('',#1807);
#1807 = COLOUR_RGB('',0.447058818107,0.474509808674,0.501960817233);
#1808 = CURVE_STYLE('',#1809,POSITIVE_LENGTH_MEASURE(0.1),#1810);
#1809 = DRAUGHTING_PRE_DEFINED_CURVE_FONT('continuous');
#1810 = COLOUR_RGB('',9.803921802644E-02,9.803921802644E-02,
  9.803921802644E-02);
ENDSEC;
END-ISO-10303-21;
